<?xml version="1.0" encoding="UTF-8"?>
<svg width="1647px" height="318px" viewBox="0 0 1647 318" version="1.1" xmlns="http://www.w3.org/2000/svg" xmlns:xlink="http://www.w3.org/1999/xlink">
    <title>clouds</title>
    <g id="Page-1" stroke="none" stroke-width="1" fill="none" fill-rule="evenodd">
        <g id="clouds" fill="#FFFFFF" fill-rule="nonzero">
            <path d="M734.68,233.41 C742.24,223.93 734.49,210.06 722.42,207.33 C713.71,205.36 704.94,203.75 696.13,202.49 C695.98,200.22 695.48,197.84 694.61,195.32 C692.71,189.84 687.23,183.92 680.28,182.92 C673.75,181.98 667.21,181.21 660.67,180.56 C637.25,167.77 604.12,166.16 578.25,168.18 C571.34,168.72 564.53,169.56 557.81,170.64 C555.19,169.24 552.45,167.96 549.62,166.82 C547.68,153.58 539.18,141.19 526.13,133.45 C507.61,122.47 480,121.98 463.35,136.1 C462.1,137.16 460.94,138.3 459.86,139.49 C453.11,140.35 446.4,141.42 439.75,142.7 C427.98,144.96 416.4,147.95 405.13,151.64 C393.32,155.51 381.4,159.44 373.4,168.32 C366.44,176.04 364.46,185.07 366.09,193.77 C365.86,193.95 365.64,194.14 365.42,194.33 C352.45,194.1 339.73,197.99 328.83,205.6 C312.16,217.24 306.38,235.95 310.78,253.71 C315.36,272.21 331.81,286.96 351.87,293.55 C359.31,295.99 367.15,297.13 375.02,297.2 C377.87,301.08 381.78,304.49 386.52,307.07 C397.71,313.16 410.59,314.39 423.4,312.67 C425.16,313.71 427.15,314.47 429.34,314.81 C452.7,318.45 476.36,318.63 499.47,314.84 C568.5,312.95 637.29,302.96 703.18,285.15 C718.62,280.98 722.12,264.3 712.33,255.53 C720.7,248.95 728.21,241.51 734.68,233.41 Z" id="Path"></path>
            <path d="M270.56,94.16 C270.3,90.13 267.13,85.48 262.33,84.25 C254.27,82.19 246.18,80.68 238.04,79.72 C234.57,69.06 223.78,61.61 212.88,56.2 C207.4,51.2 199.89,48.95 192.04,48.58 C186.42,47.26 180.64,46.43 174.94,46.13 C177.55,39.7 177.16,32.52 173.57,26.03 C164.58,9.79 141.33,1.16 121.82,0.12 C102.56,-0.9 80.05,4.35 68.78,18.64 C62.72,26.33 61.15,35.99 64.57,44.86 C62.76,46.35 61.02,47.91 59.36,49.54 C57.87,51 56.58,52.61 55.49,54.3 C51.25,55.37 47.28,56.96 43.96,59.19 C41.33,60.96 39.37,63.12 38.05,65.5 C23.05,66.45 2.24,71.8 0.17,86.78 C-0.56,92.05 1.14,97.15 4.4,101.48 C3.99,103.43 3.93,105.51 4.33,107.73 C5.83,116.19 14.08,121.69 22.79,122.23 C24.15,123.67 25.92,124.83 28.04,125.51 C32.64,126.98 37.35,128.18 42.1,129.1 C43.86,130.33 46.08,131.2 48.73,131.49 C71,133.89 93.47,133.12 115.19,129.36 C125.89,128.78 136.58,128.05 147.18,127.47 C167.04,129.91 187.04,130.61 207.01,129.96 C210.67,129.84 214.62,129.72 218.45,129.29 C220.92,129.66 223.39,130.06 225.84,130.52 C232.23,131.71 239.47,126.19 239.47,120.72 C239.47,120.57 239.47,120.45 239.47,120.35 C239.76,119.99 240.05,119.63 240.09,119.59 C242.08,117.66 242.7,114.95 242.29,112.27 C249.66,110.41 256.78,107.84 263.53,104.51 C268.02,102.3 270.86,98.86 270.56,94.16 Z" id="Path"></path>
            <path d="M1646.12,251.23 C1646.94,236.3 1626.33,228.99 1612.37,227.04 C1610.83,226.82 1609.27,226.66 1607.71,226.54 C1607.74,225.73 1607.72,224.93 1607.66,224.13 C1606.53,210.03 1590.23,203.05 1576.06,200.92 C1575.41,189.45 1565.9,179.48 1552.86,175.51 C1552.31,175.34 1551.74,175.19 1551.18,175.04 C1547.44,169.93 1542.05,165.66 1535.16,162.87 C1531.6,161.43 1527.91,160.51 1524.18,160.06 C1524.04,158.87 1523.81,157.67 1523.44,156.48 C1520.98,148.45 1513.93,142.12 1504.69,139.74 C1489.37,135.79 1471.63,140.8 1458.01,147.02 C1450.92,150.25 1444.31,154.19 1438.31,158.73 C1427.95,156.56 1415.82,159.68 1407.91,165.6 C1397.52,173.37 1392.18,185.3 1393.61,197.08 C1393.82,198.84 1394.24,200.54 1394.81,202.19 C1389.77,206.17 1385.77,211.11 1383.39,216.88 C1382.72,218.49 1382.21,220.12 1381.84,221.74 C1377.94,222.24 1374.09,223.04 1370.37,224.15 C1363.47,226.22 1358.17,230.55 1355.68,235.85 C1352.71,235.95 1349.73,236.13 1346.73,236.4 C1339.47,237.04 1333.38,244.7 1335.26,250.78 C1337.01,256.49 1338.77,262.19 1340.52,267.9 C1340.89,269.11 1341.45,270.28 1342.16,271.37 C1342.55,275.69 1346.02,280.96 1351.27,282.04 C1356.49,283.11 1361.78,283.79 1367.07,284.09 C1370.28,285.24 1373.64,286.06 1377.06,286.51 C1378.09,287.05 1379.15,287.55 1380.23,288.02 C1393.54,293.77 1409.28,293.99 1423.28,289.9 C1440.83,289.91 1458.37,288.04 1475.43,284.13 C1477.92,284.02 1480.41,283.88 1482.89,283.7 C1487.99,284.39 1493.1,284.92 1498.19,285.28 C1511.74,286.26 1525.44,286.08 1538.99,284.76 C1568.83,292.61 1601.22,291.78 1630.94,281.89 C1637.94,279.56 1641.3,270.73 1637.73,265 C1642.48,261.36 1645.82,256.83 1646.12,251.23 Z" id="Path"></path>
            <g id="Group" transform="translate(811.000000, 119.000000)">
                <path d="M128.66,33.76 C127.87,28.65 122.29,23.36 115.79,23.93 C112.78,24.19 109.77,24.48 106.77,24.76 C101.52,20.79 95.26,17.9 88.48,16.55 C88.45,16.3 88.42,16.05 88.39,15.8 C87.88,11.7 85.88,8.32 81.26,6.63 C77.36,5.21 71.45,5.61 68.59,8.71 C68.35,8.97 68.04,9.21 67.77,9.47 C67.79,9.48 67.82,9.48 67.84,9.49 C67.79,9.51 67.75,9.52 67.7,9.54 C67.7,9.54 67.69,9.55 67.69,9.55 C67.68,9.55 67.67,9.55 67.66,9.55 C67.55,9.59 67.44,9.62 67.35,9.65 C67.27,9.67 67.21,9.68 67.15,9.7 C67.01,9.67 66.87,9.64 66.73,9.62 C66.69,9.62 66.66,9.63 66.62,9.63 C66.63,9.62 66.64,9.62 66.66,9.61 C66.35,9.56 66.04,9.52 65.75,9.45 C65.72,9.44 65.67,9.43 65.62,9.41 C65.82,9.59 65.73,9.68 64.96,9.27 C64.92,9.25 64.83,9.2 64.72,9.14 C64.58,9.11 64.47,9.09 64.44,9.11 C64.48,9.09 64.53,9.07 64.57,9.06 C64.37,8.95 64.14,8.83 63.94,8.73 C63.86,8.66 63.79,8.6 63.73,8.55 C63.61,8.05 63.42,7.24 63.41,7.2 C62.38,0.99 52.82,-1.18 47.36,1.55 C36.47,6.99 25.6,12.41 14.88,18.1 C13.24,18.97 11.99,20.24 11.21,21.68 C10.83,21.77 10.45,21.86 10.07,21.94 C3.57,23.46 -0.47,29.09 0.41,34.74 C0.74,36.87 1.71,38.78 3.14,40.36 C3.12,40.62 3.11,40.87 3.11,41.13 C3.11,44.82 5.56,49.58 9.74,51.14 C14.21,52.81 18.56,53.48 22.91,52.7 C25.36,53.03 27.89,53.14 30.4,53.1 C40.14,52.94 49.88,52.6 59.6,52.08 C67.2,51.67 74.83,51.2 82.46,50.59 C86.4,50.31 90.33,49.95 94.25,49.53 C102.64,48.68 111,47.62 119.26,46.23 C125.66,45.12 129.47,38.94 128.66,33.76 Z M59.66,28.52 C55.18,28.35 50.7,28.11 46.23,27.74 C45.73,27.12 45.16,26.53 44.54,26 C44.35,25.31 44.09,24.65 43.76,24 C45.2,23.4 46.63,22.8 48.07,22.19 C51,24.99 54.84,27.14 59.33,28.43 C59.43,28.47 59.55,28.49 59.66,28.52 Z" id="Shape"></path>
                <path d="M66.75,9.59 C66.9,9.58 67.32,9.53 67.66,9.53 C67.67,9.53 67.68,9.52 67.7,9.52 C67.72,9.5 67.75,9.48 67.77,9.46 C67.31,9.36 66.86,9.47 66.66,9.59 C66.69,9.59 66.71,9.6 66.73,9.6 C66.73,9.59 66.74,9.59 66.75,9.59 Z" id="Path"></path>
                <path d="M65.61,9.38 C65.41,9.2 64.93,8.94 64.56,9.03 C64.61,9.06 64.66,9.09 64.71,9.11 C64.98,9.18 65.38,9.31 65.61,9.38 Z" id="Path"></path>
            </g>
            <g id="Group" transform="translate(1010.000000, 88.000000)">
                <path d="M509.1,129.85 C506.08,123.66 501.21,118.54 495.31,114.24 C492.63,112.29 489.67,110.78 486.55,109.59 C481.89,97.28 473.54,86.54 462.12,77.78 C455.81,72.93 448.23,69.1 440.4,66.41 C432.99,63.86 425.26,62.2 417.94,59.41 C417.91,59.39 417.89,59.38 417.86,59.36 C417.03,58.85 416.15,58.39 415.33,57.86 C415.06,57.68 414.79,57.49 414.52,57.31 C414.32,57.16 414.16,57.05 414.04,56.95 C413.59,56.46 413.16,55.95 413.04,55.83 C411.9,54.62 410.87,53.34 409.87,52.04 C409.72,51.84 409.4,51.43 409.11,51.06 C407.99,49.54 406.93,47.98 405.8,46.46 C401.33,40.46 395.57,35.11 388.8,31 C375.61,22.99 359.36,19.41 343.42,18.8 C329.18,18.25 314.94,19.51 300.91,21.64 C299.95,20.41 298.89,19.21 297.71,18.06 C292.51,12.99 286.54,9.43 279.62,6.35 C266.26,0.4 250.21,0.11 235.64,1.8 C211.53,4.6 177.96,11.57 172.16,35.19 C164.15,34.27 155.97,34.39 147.94,35.6 C138,37.11 128.42,40.24 119.88,44.87 C115.02,47.5 109.58,50.51 106.12,54.56 C103.69,57.4 101.8,60.87 101.05,64.45 C100.86,64.56 100.66,64.67 100.47,64.78 C93.86,64.24 87.13,64.26 80.32,64.87 C71.02,65.7 61.79,67.89 53.12,70.88 C49.44,72.15 45.86,73.64 42.42,75.35 C41.53,75.79 40.65,76.25 39.78,76.72 C39.76,76.73 38.82,77.24 37.9,77.73 C37.05,78.18 35.13,79.22 34.27,79.7 C32.55,80.67 30.87,81.68 29.24,82.76 C21.98,87.55 15.31,93.5 10.18,100.03 C1.56,111 -2.32,123.56 2.8,136.38 C5.02,141.94 9.45,146.51 14.51,150.31 C20.07,154.48 27.14,156.38 34.22,157.53 C36.7,157.93 39.22,158.11 41.72,158.32 C42.88,158.42 44.04,158.51 45.2,158.63 C45.7,158.68 46.2,158.75 46.7,158.82 C47.53,159.12 49.25,159.57 49.87,159.74 C50.24,159.92 50.52,160.06 50.46,160.03 C53.75,161.71 57.12,163.52 60.75,164.61 C72.71,168.19 85.91,167.12 98.34,167.09 C110.31,167.06 122.27,167.01 134.24,166.93 C158.39,166.78 182.54,166.52 206.69,166.17 C254.72,165.47 302.73,165.31 350.76,164.22 C375.74,163.65 400.71,162.96 425.67,162.19 C446.98,161.53 469.17,162.09 489.27,154.99 C494.67,153.08 499.79,150.37 504.44,147.34 C510.57,143.34 511.96,135.7 509.1,129.85 Z" id="Path"></path>
                <path d="M48.52,159.02 C48.51,159.02 48.51,159.02 48.52,159.02 C48.51,159.02 48.51,159.03 48.52,159.02 C48.52,159.03 48.52,159.03 48.52,159.02 C48.52,159.03 48.52,159.02 48.52,159.02 Z" id="Path"></path>
            </g>
        </g>
    </g>
</svg>