<svg xmlns="http://www.w3.org/2000/svg" viewBox="0 0 178.87 23.01"><defs><style>.cls-1{fill:#fff;}.cls-2{opacity:0.8;}</style></defs><g id="Layer_2" data-name="Layer 2"><g id="Layer_1-2" data-name="Layer 1"><path class="cls-1" d="M.43,22.74h0l0,0a.08.08,0,0,1,0,0l0-.06,0-.05,0-.06a.14.14,0,0,0,0-.07.22.22,0,0,0,0-.08.29.29,0,0,1,0-.09.28.28,0,0,1,0-.09.45.45,0,0,1,0-.11.3.3,0,0,1,0-.1.62.62,0,0,1,0-.13.37.37,0,0,1,0-.12.62.62,0,0,0,0-.13v-.14a.57.57,0,0,1,0-.13.78.78,0,0,1,0-.16V21a.86.86,0,0,1,0-.15v-.17a1.09,1.09,0,0,1,0-.18v-.17a1.1,1.1,0,0,0,0-.18v-.58a1.34,1.34,0,0,0,0-.2V17.64a1.62,1.62,0,0,0,0-.22v-.71a2.12,2.12,0,0,1,0-.24v-.72c0-.08,0-.16,0-.24v-.25a1.69,1.69,0,0,1,0-.23v-.25a2,2,0,0,1,0-.25v-.24a2.09,2.09,0,0,1,0-.25v-.25c0-.07,0-.15,0-.24V13a2.11,2.11,0,0,0,0-.25V12.3a2,2,0,0,0,0-.23v-.46a1.77,1.77,0,0,0,0-.24v-.22a1.55,1.55,0,0,0,0-.22v-.21a1.83,1.83,0,0,1,0-.21,1.41,1.41,0,0,0,0-.21c0-.07,0-.14,0-.21V9.9a1.36,1.36,0,0,1,0-.2,1.21,1.21,0,0,1,0-.19,1.1,1.1,0,0,0,0-.18,1.09,1.09,0,0,0,0-.18V9a1,1,0,0,1,0-.17.88.88,0,0,1,0-.16.81.81,0,0,0,0-.16V8.34a.77.77,0,0,1,0-.15V8.05a.62.62,0,0,0,0-.13V7.24a.22.22,0,0,1,0-.08V7.08L0,7a.15.15,0,0,1,0-.07.16.16,0,0,1,0-.07l.07-.06.11,0,.16,0a.47.47,0,0,0,.16,0l.2,0,.21,0,.23,0,.24,0h.25l.25,0h.5l.24,0h.43l.18,0h.17l.12,0,.1,0,0,0a.27.27,0,0,1,.11.1.21.21,0,0,1,.06.1.49.49,0,0,1,0,.12.47.47,0,0,1,0,.21.55.55,0,0,0,0,.35s.06,0,.16-.11a.44.44,0,0,1,.15-.1l.15-.1a.8.8,0,0,1,.16-.08.53.53,0,0,1,.15-.08L4.78,7A.51.51,0,0,0,4.93,7l.16,0,.15-.07.15,0,.16-.06.15,0,.15,0,.16,0,.15,0,.15,0H7.2l.14,0,.14,0,.15,0,.14,0,.13,0L8,6.8l.14,0,.13,0L8.42,7,8.55,7l.12.07.13.08a.35.35,0,0,1,.12.07L9,7.33l.11.09.11.09a.48.48,0,0,0,.11.09l.11.1.1.11.09.11.1.11a.64.64,0,0,1,.1.13l.08.12a.64.64,0,0,1,.1.13l.08.12.07.14.09.14a.37.37,0,0,0,.07.14.75.75,0,0,0,.05.16.52.52,0,0,1,.07.15l.06.15a1.31,1.31,0,0,0,.05.15l.06.17a1,1,0,0,1,0,.17.94.94,0,0,1,0,.16c0,.07,0,.13,0,.18l0,.19,0,.18,0,.18a1.09,1.09,0,0,0,0,.18,1.21,1.21,0,0,0,0,.19V12c0,.08,0,.15,0,.22a1.25,1.25,0,0,1,0,.21q0,.12,0,.21c0,.08,0,.15,0,.21a1.42,1.42,0,0,1,0,.2,1.62,1.62,0,0,0,0,.19l-.06.19a.78.78,0,0,1-.05.18c0,.07-.05.13-.07.19a1.34,1.34,0,0,1-.07.18,1.11,1.11,0,0,0-.07.16,1.3,1.3,0,0,0-.08.17,1,1,0,0,1-.09.15.8.8,0,0,1-.08.16l-.1.15-.1.14L9.83,15l-.11.14a.43.43,0,0,0-.11.12l-.12.13-.11.11-.11.11a1.31,1.31,0,0,0-.12.11l-.13.1a.38.38,0,0,0-.12.09L8.76,16l-.13.08-.14.08-.14.07-.13.07-.14.07-.14.06-.14.05-.15,0a.33.33,0,0,0-.14,0l-.16,0-.14,0H7.06l-.15,0H6.17l-.15,0H5.87l-.14,0-.16,0-.13,0-.14,0-.16,0L5,16.43l-.13-.07a.61.61,0,0,1-.14-.07l-.13-.07-.14-.08a.16.16,0,0,1-.12-.09c-.07-.08-.11-.11-.13-.08s0,.08,0,.17,0,.12,0,.19a1.48,1.48,0,0,0,0,.2,1.23,1.23,0,0,1,0,.19,1.34,1.34,0,0,0,0,.2,1.49,1.49,0,0,1,0,.21c0,.07,0,.14,0,.22a1.34,1.34,0,0,1,0,.21,1.5,1.5,0,0,1,0,.22,1.62,1.62,0,0,1,0,.22,1.7,1.7,0,0,1,0,.22,1.79,1.79,0,0,1,0,.23,1.55,1.55,0,0,1,0,.22,1.64,1.64,0,0,0,0,.22,1.62,1.62,0,0,0,0,.22v.23a1.55,1.55,0,0,1,0,.22,1.64,1.64,0,0,0,0,.22v.42a1.34,1.34,0,0,1,0,.21v.75a.86.86,0,0,0,0,.16v.17a1,1,0,0,0,0,.15.61.61,0,0,1,0,.14.66.66,0,0,1,0,.14.69.69,0,0,1,0,.13.45.45,0,0,1,0,.11l0,.09a.28.28,0,0,1,0,.09l0,.07,0,.05s0,0,0,0l0,0-.14.07-.16.06-.16.05-.18.06-.18,0-.19,0-.2,0-.19,0-.2,0L2.4,23H2.2L2,23H1.61l-.18,0H1.25l-.17,0a.4.4,0,0,1-.15,0l-.15,0-.13,0L.54,22.8Zm5.35-9.67a.55.55,0,0,0,.18,0h.18a.47.47,0,0,0,.17,0L6.48,13l.15-.08a1,1,0,0,0,.15-.11.8.8,0,0,0,.13-.13A.81.81,0,0,0,7,12.52l.09-.15a.71.71,0,0,1,.08-.15,1,1,0,0,0,0-.17.45.45,0,0,0,0-.16.6.6,0,0,0,0-.19,1.21,1.21,0,0,0,0-.19.78.78,0,0,0,0-.18.49.49,0,0,0,0-.2A1.42,1.42,0,0,0,7.08,11a1.4,1.4,0,0,0-.1-.16.58.58,0,0,0-.13-.14.44.44,0,0,0-.14-.13.54.54,0,0,0-.15-.09l-.19,0-.2,0H6l-.18,0-.18.07-.18.1-.15.1-.14.12L5,10.94a1.34,1.34,0,0,0-.11.14l-.09.15s0,.1-.05.15a.75.75,0,0,0,0,.16,1.64,1.64,0,0,0,0,.22,1.49,1.49,0,0,0,0,.21.87.87,0,0,0,0,.19.51.51,0,0,0,.09.18,1.4,1.4,0,0,0,.09.17,1.34,1.34,0,0,1,.11.14l.14.12.14.1.14.09.15.07Z"/><path class="cls-1" d="M11.72,16.71l0,0s0,0,0,0l0-.06a.19.19,0,0,0,0-.07s0-.06,0-.09l0-.1a.53.53,0,0,0,0-.13v-.12a.76.76,0,0,1,0-.15.78.78,0,0,1,0-.16.86.86,0,0,0,0-.16v-.18a1.1,1.1,0,0,0,0-.18v-.39a1.62,1.62,0,0,1,0-.21V13.07a2.09,2.09,0,0,0,0-.24v-.68a1.64,1.64,0,0,0,0-.22v-.45a1.69,1.69,0,0,0,0-.23V11a2.28,2.28,0,0,0,0-.26v-.23c0-.08,0-.17,0-.25a1.93,1.93,0,0,1,0-.24V9.77a1.64,1.64,0,0,0,0-.23,1.77,1.77,0,0,1,0-.23c0-.08,0-.16,0-.23V8.85a1.23,1.23,0,0,0,0-.2,1.62,1.62,0,0,0,0-.21,1.36,1.36,0,0,0,0-.2,1.21,1.21,0,0,1,0-.19,1,1,0,0,1,0-.18,1,1,0,0,1,0-.17,1,1,0,0,1,0-.17.59.59,0,0,1,0-.13V7.26a.49.49,0,0,0,0-.12.37.37,0,0,0,0-.11.19.19,0,0,0,0-.08.25.25,0,0,0,0-.08.14.14,0,0,0,0-.06s0,0,0,0h0l.06,0,.1,0,.14,0,.16,0,.2,0,.21,0,.23,0,.24,0h1.54l.14,0,.1,0,.07,0,.08.08a.76.76,0,0,1,.08.11l.09.14.07.15c0,.07.05.13.07.2a.33.33,0,0,1,0,.23q-.08.22,0,.3s.1,0,.19-.17a.7.7,0,0,1,.18-.14A1.1,1.1,0,0,0,16,7.38l.18-.11a1.09,1.09,0,0,0,.17-.13.76.76,0,0,0,.18-.09L16.72,7l.17-.08.18-.08.17-.06.16,0,.18-.05.16,0,.16,0,.17,0,.15,0h.48l.15,0H19l.15,0,.14,0,.14,0,.14.05.12,0,.13,0,.14,0,.11.06a.47.47,0,0,1,.12.07l.11.06a.37.37,0,0,1,.12.07l.11.06.11.07.1.07.09.07.1.07.08.09.09.07.08.08.07.08a.27.27,0,0,1,.08.07l.06.09a.16.16,0,0,1,.07.07l.05.08.06.07a.16.16,0,0,0,0,.07.3.3,0,0,0,0,.08.43.43,0,0,1,0,.07l0,.06,0,.07a.07.07,0,0,1,0,0,.25.25,0,0,1,0,.07.13.13,0,0,1,0,.06v.14s0,0,0,0l0,0,0,0-.05.06L21.57,9l-.09.1-.13.12-.14.13a1.85,1.85,0,0,1-.14.14l-.15.15-.17.17-.16.16-.17.17-.17.15-.16.17-.16.15-.15.14-.15.13L19.5,11l-.11.1-.1.07-.08.05-.06,0h0L19,11.08a2.09,2.09,0,0,0-.14-.17l-.14-.15a.79.79,0,0,0-.12-.15,1.85,1.85,0,0,0-.14-.14l-.13-.13-.13-.11-.14-.11-.13-.1L17.79,10l-.14-.07-.14-.05-.13,0h-.45l-.15.06-.13.05-.12.07-.11.09-.11.1-.09.11a.42.42,0,0,0-.08.12,1,1,0,0,0-.08.14l-.06.14a.58.58,0,0,0-.06.15,1.09,1.09,0,0,1,0,.17.85.85,0,0,0,0,.17,1.21,1.21,0,0,1,0,.18,1.1,1.1,0,0,1,0,.18,1.23,1.23,0,0,0,0,.19,1.34,1.34,0,0,0,0,.2,1.21,1.21,0,0,0,0,.19,1.36,1.36,0,0,1,0,.21v.21a1.83,1.83,0,0,0,0,.21V13c0,.06,0,.13,0,.2a1.48,1.48,0,0,1,0,.21,1.49,1.49,0,0,1,0,.21,1.49,1.49,0,0,1,0,.21,1.23,1.23,0,0,1,0,.19q0,.12,0,.21l0,.2,0,.19,0,.2L16,15s0,.11,0,.18a.86.86,0,0,0,0,.16l0,.17,0,.15a.59.59,0,0,0,0,.14.51.51,0,0,0,0,.13.53.53,0,0,1,0,.12.45.45,0,0,1,0,.11.44.44,0,0,1,0,.1.28.28,0,0,1,0,.09v.18s0,0,0,0l0,0H16l-.1,0-.12,0-.14,0-.18,0h-.4l-.23,0h-.23l-.24,0h-.25l-.25,0h-1l-.22,0H12.5l-.2,0h-.43l-.1,0Z"/><path class="cls-1" d="M26.65,6.67h.15l.15,0,.17,0,.15,0,.17,0,.17,0,.15,0,.17.06.16.07.16,0,.16.07.16.09.16.08.16.1.15.08.15.11.15.1.16.11.15.13a.75.75,0,0,1,.14.12l.14.13.14.13.14.13.13.15a.86.86,0,0,0,.13.14l.12.15.12.16.12.16.11.17.1.17a.77.77,0,0,1,.1.18.91.91,0,0,1,.09.17,1.62,1.62,0,0,0,.1.18l.09.19a.76.76,0,0,0,.06.18.8.8,0,0,1,.07.2l.07.19.06.21a1.29,1.29,0,0,1,0,.19c0,.08,0,.15,0,.21s0,.15,0,.21l0,.22a1.49,1.49,0,0,1,0,.21,1.62,1.62,0,0,1,0,.21v.42a1.21,1.21,0,0,1,0,.19,1.36,1.36,0,0,1,0,.2,1.21,1.21,0,0,0,0,.19c0,.06,0,.12,0,.18s0,.13,0,.18a1.16,1.16,0,0,0,0,.18l-.06.17a1.09,1.09,0,0,0,0,.17l-.06.16-.07.16-.08.15-.09.15c0,.05-.05.1-.08.16a1.13,1.13,0,0,0-.1.13l-.11.13a.65.65,0,0,1-.11.12l-.11.13-.13.12-.13.12-.14.11-.14.09-.16.1a.53.53,0,0,1-.15.08l-.17.09-.16.08-.18.07-.2.07-.18.07-.21.06-.21,0-.2,0-.23,0-.22,0-.23,0H26.31l-.22,0-.22,0-.21,0a.78.78,0,0,0-.21,0l-.21,0-.19-.05-.2-.06-.18,0a.75.75,0,0,0-.18-.07l-.16-.09a.51.51,0,0,1-.17-.07A1.4,1.4,0,0,1,24,16l-.15-.09-.15-.09-.14-.11-.14-.12a.69.69,0,0,1-.13-.11,1.36,1.36,0,0,1-.12-.12.8.8,0,0,1-.13-.13.63.63,0,0,0-.11-.12l-.1-.14a.58.58,0,0,0-.11-.15s-.05-.1-.08-.16a.53.53,0,0,1-.08-.15l-.09-.17-.07-.16c0-.06-.05-.11-.07-.17a.78.78,0,0,0-.05-.18l-.06-.2a1.29,1.29,0,0,0,0-.19,1.77,1.77,0,0,0,0-.2l0-.2a1.48,1.48,0,0,1,0-.21,1.49,1.49,0,0,1,0-.21,2.09,2.09,0,0,1,0-.25v-.49l0-.23a1.77,1.77,0,0,1,0-.24,1.7,1.7,0,0,1,0-.22,1.42,1.42,0,0,1,.05-.22.93.93,0,0,1,0-.23c0-.07,0-.14.05-.21l.06-.2a1.72,1.72,0,0,0,.07-.21l.08-.2a1.46,1.46,0,0,1,.07-.19,1.42,1.42,0,0,0,.08-.18,1.62,1.62,0,0,0,.1-.18l.1-.17a1.62,1.62,0,0,1,.1-.18.58.58,0,0,1,.11-.15,1.63,1.63,0,0,1,.11-.17l.11-.15a1.71,1.71,0,0,1,.11-.14l.13-.16a.71.71,0,0,1,.12-.13L23.76,8l.13-.12L24,7.78l.14-.12.14-.1.14-.11.14-.08.13-.1.14-.08L25,7.12,25.13,7l.15,0,.14-.06.14,0,.14-.06.14,0,.14,0,.14,0h.26l.13,0Zm1.9,4.55a.74.74,0,0,0,0-.14L28.45,11l-.07-.14-.08-.13a.64.64,0,0,0-.1-.13,1.34,1.34,0,0,0-.11-.14L28,10.29l-.12-.11-.14-.1-.16-.1a.52.52,0,0,0-.15-.07l-.17-.05-.18,0-.18,0-.19,0-.21.05a.58.58,0,0,0-.17.06l-.14.08-.15.1-.12.12-.13.14-.11.16a.56.56,0,0,0-.1.15l-.08.17a.75.75,0,0,0-.07.18l-.06.16c0,.06,0,.12,0,.17l0,.17v.16a.78.78,0,0,0,0,.16l0,.14a1.34,1.34,0,0,0,.07.18,1.09,1.09,0,0,0,.08.15,1,1,0,0,0,.11.15l.13.13.13.1.16.09.16.07.17.06.18,0h.18l.2,0,.19,0,.21,0,.2-.05.12,0,.14,0,.14-.07.14-.1a.58.58,0,0,0,.12-.1.74.74,0,0,0,.13-.12l.09-.14.1-.14a1.22,1.22,0,0,0,.07-.17.94.94,0,0,0,0-.16,1.36,1.36,0,0,0,0-.2.41.41,0,0,0,0-.19A1.12,1.12,0,0,0,28.55,11.22Z"/><path class="cls-1" d="M35.82.63h0l0,0,0,0a.16.16,0,0,1,0,.07l0,.07L36,1s0,.06,0,.1l0,.12,0,.13,0,.14a.59.59,0,0,1,0,.13l0,.17,0,.15a1.28,1.28,0,0,1,0,.19l0,.18a1.23,1.23,0,0,1,0,.19c0,.07,0,.13,0,.2a1.23,1.23,0,0,1,0,.19l0,.21a1.48,1.48,0,0,0,0,.21,1.7,1.7,0,0,0,0,.22,1.64,1.64,0,0,1,0,.22,1.7,1.7,0,0,1,0,.22,1.79,1.79,0,0,1,0,.23c0,.07,0,.14,0,.22a1.62,1.62,0,0,1,0,.22,1.94,1.94,0,0,1,0,.24,1.62,1.62,0,0,1,0,.22,1.62,1.62,0,0,1,0,.22,1.79,1.79,0,0,1,0,.24,1.62,1.62,0,0,1,0,.22,1.49,1.49,0,0,0,0,.21v.22a1.62,1.62,0,0,1,0,.21,1.48,1.48,0,0,1,0,.21,1.83,1.83,0,0,0,0,.21V7a.28.28,0,0,1,0,.2.21.21,0,0,0,0,.18s0,0,.11-.07a.27.27,0,0,1,.12-.07L37,7.17l.12,0a.38.38,0,0,1,.13,0L37.34,7l.14,0,.15,0,.14,0a.4.4,0,0,1,.15,0l.15,0,.16,0h.32l.16,0,.16,0h.33l.17,0h.16l.17.05.15,0L40,7l.17,0,.16,0,.17.06.15,0a.61.61,0,0,0,.17.07l.15.07.16.09.15.08.15.08.14.1.15.1.14.11L42,8l.13.13.14.12.12.13.11.13a.86.86,0,0,0,.13.14.83.83,0,0,1,.09.16,1,1,0,0,1,.12.15l.09.15.1.17a1,1,0,0,1,.08.18l.09.17.07.19a1.71,1.71,0,0,0,.07.18,1.6,1.6,0,0,0,0,.21l.06.2a1.77,1.77,0,0,1,0,.2,1.85,1.85,0,0,1,0,.23l0,.22a1.77,1.77,0,0,1,0,.24,1.64,1.64,0,0,1,0,.23v.61a1.36,1.36,0,0,0,0,.2,1.21,1.21,0,0,0,0,.19l0,.18,0,.18,0,.2c0,.05,0,.11,0,.16a1.06,1.06,0,0,1,0,.19.94.94,0,0,0,0,.16l-.06.17a.66.66,0,0,1-.05.15l-.06.17a1,1,0,0,1-.07.15l-.07.16a.83.83,0,0,1-.07.13.37.37,0,0,1-.07.14.64.64,0,0,1-.08.14l-.08.13-.09.12a.6.6,0,0,1-.09.13,1.25,1.25,0,0,1-.09.12l-.09.11-.1.11-.11.1-.11.11-.1.09a.87.87,0,0,1-.11.09l-.13.09-.11.08-.12.07-.13.07-.12.07-.13.07-.12.05-.13,0-.14,0-.14,0-.14,0-.13,0-.14,0h-.28l-.15,0h-.3l-.14,0H39l-.15,0-.16,0-.15,0-.15,0-.16,0-.15-.06L38,16.36l-.15-.05-.16-.09-.15-.07-.15-.08-.16-.1a.31.31,0,0,1-.15-.1q-.11-.15-.15-.09t0,.27a.84.84,0,0,1,.05.17.18.18,0,0,0,0,.09.08.08,0,0,1,0,.05s0,0,0,0l-.1.07,0,0-.08,0h-.13l-.14,0h-.16l-.19,0-.2,0H35.5l-.23,0H34l-.22,0h-.21l-.19,0a.57.57,0,0,1-.18,0l-.16,0-.12,0-.1,0-.07,0,0-.06a.06.06,0,0,0,0,0v-.08a.2.2,0,0,1,0-.07V16a.44.44,0,0,1,0-.1v-.09a.38.38,0,0,0,0-.1v-.36a.68.68,0,0,1,0-.14V15a.92.92,0,0,0,0-.16v-.68a1.21,1.21,0,0,0,0-.19V12.5a1.79,1.79,0,0,0,0-.23V10.38a2.29,2.29,0,0,1,0-.25V8.38a2,2,0,0,0,0-.25V7.38a2.09,2.09,0,0,1,0-.25V6.64a2.29,2.29,0,0,1,0-.25V5.91a1.93,1.93,0,0,1,0-.24V5.2a1.8,1.8,0,0,0,0-.22V4.74c0-.07,0-.15,0-.22V4.31a1.7,1.7,0,0,0,0-.22V3.88a1.83,1.83,0,0,0,0-.21,1.62,1.62,0,0,1,0-.21V3.27c0-.07,0-.13,0-.2V2.89a1.1,1.1,0,0,0,0-.18,1.09,1.09,0,0,1,0-.18V2.36a.88.88,0,0,0,0-.16,1,1,0,0,1,0-.17s0-.09,0-.14V1.74a.68.68,0,0,0,0-.14.53.53,0,0,0,0-.13.74.74,0,0,1,0-.12.37.37,0,0,1,0-.11.37.37,0,0,1,0-.11A.44.44,0,0,1,33,1,.19.19,0,0,1,33,1a.29.29,0,0,1,0-.09.15.15,0,0,1,0-.07.15.15,0,0,1,0-.07s0,0,0,0a.06.06,0,0,1,0,0s0,0,0,0a0,0,0,0,1,0,0h0l.14-.05.15,0,.16,0,.15,0h.15L34,.4h.68l.18,0,.18,0,.19,0,.2,0,.19.06Zm1.68,11.1c0,.09,0,.18.07.25a.9.9,0,0,0,.1.22l.13.2.13.15.16.13a.58.58,0,0,0,.15.11l.17.08.16.06.17,0,.15,0h.28l.18,0,.17-.07a.69.69,0,0,0,.15-.07l.15-.1a1.55,1.55,0,0,0,.25-.26l.12-.15a.89.89,0,0,1,.08-.17,1.34,1.34,0,0,0,.07-.18c0-.07,0-.13,0-.18l0-.21v-.2a.64.64,0,0,0,0-.2.93.93,0,0,0,0-.23,1.54,1.54,0,0,0-.08-.19l-.08-.18-.12-.15a.6.6,0,0,0-.13-.14.86.86,0,0,0-.14-.13l-.16-.08L39.49,10l-.18-.05-.18,0h-.36l-.18,0-.16,0L38.3,10l-.14.08L38,10.2l-.13.11a.76.76,0,0,1-.11.14.86.86,0,0,0-.1.16,1.19,1.19,0,0,0-.08.16,1.22,1.22,0,0,0-.07.17,1.29,1.29,0,0,0,0,.19.69.69,0,0,0,0,.2v.19A1.12,1.12,0,0,0,37.5,11.73Z"/><path class="cls-1" d="M50.64,15.32s0,0-.08.12a.35.35,0,0,1-.1.11l-.1.1-.1.1-.09.1-.11.09L50,16l-.11.08a.41.41,0,0,0-.11.07l-.12.07-.11.07-.11.05-.12.06-.11,0-.13.06-.11,0-.13,0-.12,0-.11,0-.13,0h-.86l-.12,0h-.13l-.12,0-.12,0-.12,0-.13,0-.11,0-.12-.06-.11,0-.11-.06-.12-.05a2448576912714.35,2448576912714.35,0,0,1-.22-.14L45.94,16a.34.34,0,0,1-.11-.07.39.39,0,0,1-.1-.08l-.11-.08a.47.47,0,0,0-.1-.1.43.43,0,0,1-.09-.1l-.1-.09-.1-.12a.73.73,0,0,1-.08-.09l-.09-.11L45,15l-.08-.11-.09-.13a.67.67,0,0,0-.06-.12.46.46,0,0,1-.07-.14.37.37,0,0,1-.07-.12c0-.05,0-.1-.07-.14l-.06-.14a1.42,1.42,0,0,1,0-.16,1.16,1.16,0,0,1-.06-.15.83.83,0,0,1,0-.15l-.06-.15,0-.16s0-.11,0-.16l0-.17,0-.17,0-.18a1.21,1.21,0,0,0,0-.18,1.1,1.1,0,0,0,0-.18v-.56a1.23,1.23,0,0,1,0-.19,1.34,1.34,0,0,1,0-.2,1.27,1.27,0,0,1,0-.2l0-.2,0-.21c0-.08,0-.16.05-.23a1.89,1.89,0,0,1,0-.23c0-.07,0-.14.05-.2a1,1,0,0,1,.07-.21,1,1,0,0,1,.07-.21,1.59,1.59,0,0,1,.07-.2,1.42,1.42,0,0,0,.08-.18l.09-.18L44.81,9a1.4,1.4,0,0,1,.1-.16.86.86,0,0,1,.1-.16l.11-.15a1,1,0,0,1,.11-.15l.11-.14a1.34,1.34,0,0,0,.11-.14l.13-.13a.43.43,0,0,0,.12-.11l.14-.11L46,7.59a.71.71,0,0,1,.14-.1.67.67,0,0,1,.14-.09l.14-.09.13-.08.16-.07a.52.52,0,0,1,.15-.07L47,7,47.12,7a.42.42,0,0,0,.16,0l.15,0,.15,0,.15,0,.16,0h.32l.15,0h.31l.15,0h.3l.16,0,.15,0,.14,0,.15,0,.14.06L50,7l.14.06a.59.59,0,0,0,.14.06l.12.07a.56.56,0,0,0,.13.07l.12.09.13.08a.24.24,0,0,1,.11.08c.06.11.1.14.11.1a.51.51,0,0,0,0-.29.54.54,0,0,1,0-.25,1.16,1.16,0,0,0,0-.18.13.13,0,0,1,0-.09l.06,0,.1,0H53l.23,0,.24,0,.22,0,.2,0,.16,0,.14,0,.1,0,0,0,0,0v.48a.51.51,0,0,1,0,.13v.15a.92.92,0,0,0,0,.16,1.09,1.09,0,0,1,0,.18v.18a1.23,1.23,0,0,0,0,.19,1.41,1.41,0,0,1,0,.21V9a1.8,1.8,0,0,0,0,.22,2,2,0,0,1,0,.25v.24a2.35,2.35,0,0,0,0,.26v.27c0,.09,0,.18,0,.28v1.19c0,.1,0,.2,0,.29v.3a2.44,2.44,0,0,0,0,.27v.28a2.53,2.53,0,0,1,0,.27,2.46,2.46,0,0,0,0,.26,1.93,1.93,0,0,0,0,.24v.25a1.64,1.64,0,0,1,0,.22,1.62,1.62,0,0,1,0,.22,1.62,1.62,0,0,1,0,.21,1.49,1.49,0,0,1,0,.21,1.21,1.21,0,0,1,0,.19,1.1,1.1,0,0,1,0,.18.91.91,0,0,0,0,.17,1,1,0,0,0,0,.17v.15a.77.77,0,0,1,0,.15.62.62,0,0,0,0,.13v.12a.36.36,0,0,0,0,.11v.42a.08.08,0,0,1,0,0v0s0,0,0,0a0,0,0,0,1,0,0l0,0h-.1l-.14,0H51.7l-.21,0h-.36l-.14,0-.11,0h-.09l0,0a.21.21,0,0,1-.06-.1s0-.07,0-.11a.39.39,0,0,1,0-.15,1.24,1.24,0,0,1,0-.18,1.36,1.36,0,0,0,0-.21.41.41,0,0,1,0-.22A.54.54,0,0,0,50.64,15.32ZM49.32,10l-.18,0H49l-.18,0-.17.06a.56.56,0,0,0-.15.1l-.16.09-.12.13-.13.14-.11.15-.08.15c0,.07-.06.13-.08.19a1.89,1.89,0,0,0-.06.18l0,.18a1.21,1.21,0,0,0,0,.19v.18a.8.8,0,0,0,0,.18l.06.17a.85.85,0,0,0,.06.17,1.3,1.3,0,0,1,.1.15l.11.15.13.13.14.11a.71.71,0,0,0,.14.1.53.53,0,0,0,.15.08l.15.06.17,0h.33l.2,0,.19-.07.18-.07.17-.12a.33.33,0,0,0,.15-.11,1.49,1.49,0,0,0,.14-.12l.13-.15a.83.83,0,0,0,.09-.16l.09-.16.07-.18a1.36,1.36,0,0,0,0-.2l0-.19a1.34,1.34,0,0,0,0-.21q0-.1,0-.18c0-.07,0-.13,0-.18l-.09-.17-.1-.15a2.21,2.21,0,0,0-.25-.25.79.79,0,0,0-.15-.12l-.17-.09-.18-.09L49.51,10Z"/><path class="cls-1" d="M58.76.63s0,0,0,0l0,0,0,0a.18.18,0,0,1,0,.07.64.64,0,0,1,0,.07L59,1l0,.1s0,.08,0,.12l0,.13a.78.78,0,0,0,0,.14l0,.13,0,.17,0,.15a1.28,1.28,0,0,1,0,.19l0,.18a1.21,1.21,0,0,1,0,.19l0,.2a1.21,1.21,0,0,1,0,.19l0,.21a1.49,1.49,0,0,0,0,.21,1.7,1.7,0,0,0,0,.22,1.62,1.62,0,0,1,0,.22,1.8,1.8,0,0,1,0,.22,1.77,1.77,0,0,1,0,.23,1.55,1.55,0,0,1,0,.22,1.64,1.64,0,0,1,0,.22,1.93,1.93,0,0,1,0,.24,1.64,1.64,0,0,1,0,.22,1.62,1.62,0,0,1,0,.22,1.85,1.85,0,0,1,0,.24,1.64,1.64,0,0,1,0,.22,1.48,1.48,0,0,0,0,.21v.22a1.83,1.83,0,0,1,0,.21c0,.07,0,.14,0,.21a1.62,1.62,0,0,0,0,.21V7a.28.28,0,0,1,0,.2.21.21,0,0,0,0,.18s0,0,.11-.07a.32.32,0,0,1,.13-.07.45.45,0,0,0,.12-.06l.13,0,.12,0L60.27,7l.14,0,.15,0,.14,0,.16,0,.15,0,.15,0h.32l.17,0,.15,0h.33l.17,0h.17l.17.05.15,0L63,7l.16,0,.17,0,.17.06a.53.53,0,0,0,.15,0,.56.56,0,0,0,.16.07l.16.07.15.09a.53.53,0,0,1,.15.08l.16.08a.71.71,0,0,0,.14.1l.15.1.14.11L65,8l.12.13a.75.75,0,0,1,.14.12l.13.13.11.13a.81.81,0,0,0,.12.14.86.86,0,0,1,.1.16,1,1,0,0,1,.11.15l.1.15.1.17.08.18.08.17a1.46,1.46,0,0,1,.07.19l.07.18.06.21c0,.07,0,.13.05.2a1.77,1.77,0,0,1,0,.2,1.89,1.89,0,0,1,0,.23,1.8,1.8,0,0,0,0,.22,1.66,1.66,0,0,1,0,.24,1.69,1.69,0,0,1,0,.23v.61a1.34,1.34,0,0,0,0,.2,1.23,1.23,0,0,0,0,.19,1.1,1.1,0,0,0,0,.18q0,.11,0,.18l0,.2a.94.94,0,0,0,0,.16,1.06,1.06,0,0,1,0,.19.47.47,0,0,0,0,.16l-.06.17-.06.15a1.09,1.09,0,0,1,0,.17,1,1,0,0,1-.07.15l-.07.16a.83.83,0,0,1-.07.13.61.61,0,0,1-.07.14l-.08.14-.09.13a.83.83,0,0,1-.08.12.64.64,0,0,1-.1.13,1.25,1.25,0,0,1-.08.12l-.1.11-.1.11a.52.52,0,0,1-.11.1l-.11.11-.1.09a.48.48,0,0,1-.11.09l-.12.09-.11.08-.13.07a.47.47,0,0,1-.12.07l-.13.07-.12.07-.13.05-.12,0-.14,0-.14,0-.14,0-.14,0-.14,0h-.28l-.15,0H62.4l-.14,0H62l-.15,0-.15,0-.15,0-.16,0-.15,0L61,16.43l-.16-.07-.15-.05-.15-.09-.16-.07-.15-.08a.78.78,0,0,0-.15-.1.24.24,0,0,1-.15-.1c-.08-.1-.13-.13-.16-.09a.34.34,0,0,0,0,.27.49.49,0,0,1,.06.17.12.12,0,0,0,0,.09.07.07,0,0,1,0,.05s0,0,0,0a.31.31,0,0,1-.09.07l0,0-.09,0h-.12l-.14,0h-.17l-.18,0-.21,0h-.44l-.24,0H57l-.22,0h-.21l-.2,0-.18,0-.15,0-.13,0a.25.25,0,0,1-.09,0l-.07,0,0-.06s0,0,0,0v-.08a.25.25,0,0,1,0-.07V16a.38.38,0,0,1,0-.1v-.09a.44.44,0,0,0,0-.1v-.36a.66.66,0,0,1,0-.14V15c0-.05,0-.1,0-.16v-.68a1.23,1.23,0,0,0,0-.19V12.5a1.77,1.77,0,0,0,0-.23V10.38a2.18,2.18,0,0,1,0-.25V8.38a2,2,0,0,0,0-.25V7.38a2.09,2.09,0,0,1,0-.25V6.64a2.18,2.18,0,0,1,0-.25V5.91a1.94,1.94,0,0,1,0-.24V5.2a1.7,1.7,0,0,0,0-.22V4.74a1.64,1.64,0,0,0,0-.22V4.31c0-.08,0-.15,0-.22V3.88a1.62,1.62,0,0,0,0-.21,1.83,1.83,0,0,1,0-.21V3.27a1.34,1.34,0,0,1,0-.2V2.89a1.09,1.09,0,0,0,0-.18,1.1,1.1,0,0,1,0-.18V2.36a.86.86,0,0,0,0-.16,1,1,0,0,1,0-.17.66.66,0,0,1,0-.14V1.74a.66.66,0,0,0,0-.14.51.51,0,0,0,0-.13.57.57,0,0,1,0-.12.36.36,0,0,1,0-.11.37.37,0,0,1,0-.11.38.38,0,0,1,0-.1.19.19,0,0,1,0-.08.28.28,0,0,1,0-.09.14.14,0,0,1,0-.07.15.15,0,0,1,0-.07.09.09,0,0,1,0,0,.08.08,0,0,1,0,0,0,0,0,0,1,0,0s0,0,0,0h0l.14-.05.15,0,.15,0,.16,0h.15l.15,0h.68l.18,0,.18,0,.2,0,.19,0,.2.06Zm1.68,11.1a1.49,1.49,0,0,0,.07.25.9.9,0,0,0,.1.22,1.06,1.06,0,0,0,.12.2c.05,0,.09.11.14.15l.15.13a.91.91,0,0,0,.16.11l.16.08.17.06.17,0,.15,0h.28l.18,0,.16-.07.16-.07.15-.1a.74.74,0,0,0,.13-.12l.12-.14.11-.15.09-.17a1.27,1.27,0,0,0,.06-.18,1.89,1.89,0,0,1,.06-.18l0-.21v-.2a.64.64,0,0,0,0-.2,1.85,1.85,0,0,0,0-.23,1.54,1.54,0,0,1-.08-.19l-.09-.18a1,1,0,0,0-.11-.15.62.62,0,0,0-.14-.14.58.58,0,0,0-.14-.13l-.15-.08L62.43,10l-.18-.05-.18,0H61.7l-.18,0-.15,0-.14.06-.14.08L61,10.2l-.12.11-.11.14a.86.86,0,0,0-.1.16.4.4,0,0,0-.08.16,1.22,1.22,0,0,0-.07.17,1.33,1.33,0,0,0,0,.19,1.36,1.36,0,0,0,0,.2v.19A1.12,1.12,0,0,0,60.44,11.73Z"/><path class="cls-1" d="M68,.5l.07,0,.1,0,.15,0,.17,0h.2l.2,0h.95l.22,0,.24,0h.21l.18,0,.18,0,.12,0,.11,0a.18.18,0,0,1,.07.05h0s0,0,0,0a.07.07,0,0,0,0,.05v0s0,0,0,0a.13.13,0,0,0,0,.06V.86a.28.28,0,0,0,0,.09V1a.44.44,0,0,1,0,.1v.11a.45.45,0,0,1,0,.12s0,.08,0,.13v.12a.59.59,0,0,0,0,.14V1.9a.81.81,0,0,0,0,.16v.16a.88.88,0,0,0,0,.17v.18a1.09,1.09,0,0,0,0,.18v.38a1.21,1.21,0,0,1,0,.19v.21a1.49,1.49,0,0,0,0,.21v.43a1.62,1.62,0,0,0,0,.22v.45a1.64,1.64,0,0,0,0,.23V5.8a1.85,1.85,0,0,0,0,.23V7.8a2.35,2.35,0,0,1,0,.26v1a2.09,2.09,0,0,1,0,.25v1.53a2.09,2.09,0,0,1,0,.24v.72a1.94,1.94,0,0,0,0,.24v.23a2,2,0,0,1,0,.24V13a1.83,1.83,0,0,0,0,.21v.22a1.48,1.48,0,0,0,0,.21v.2a1.21,1.21,0,0,0,0,.19,1.36,1.36,0,0,1,0,.2v.18a1.09,1.09,0,0,0,0,.18,1.1,1.1,0,0,1,0,.18v.17c0,.05,0,.11,0,.16a.81.81,0,0,0,0,.16.59.59,0,0,1,0,.13.61.61,0,0,1,0,.14c0,.05,0,.1,0,.14a.69.69,0,0,1,0,.13.45.45,0,0,1,0,.11.43.43,0,0,1,0,.11.38.38,0,0,1,0,.1s0,0,0,.08a.19.19,0,0,1,0,.08.15.15,0,0,1,0,.07.25.25,0,0,0,0,.07.13.13,0,0,0,0,.06l0,0a0,0,0,0,1,0,0l0,0h-.11l-.12,0-.14,0h-.32l-.2,0h-.86l-.22,0-.24,0H68l-.2,0h-.18l-.16,0-.16,0-.12,0-.11,0-.07,0h0a0,0,0,0,0,0,0,.05.05,0,0,0,0,0,.11.11,0,0,0,0-.05v-.05a.14.14,0,0,1,0-.07.2.2,0,0,0,0-.07V16.1a.38.38,0,0,0,0-.1v-.21a.43.43,0,0,0,0-.11v-.86a1,1,0,0,0,0-.17v-.36a1.09,1.09,0,0,0,0-.18v-.2a1.21,1.21,0,0,0,0-.19v-.21a1.23,1.23,0,0,0,0-.19,1.77,1.77,0,0,1,0-.23v-.2a1.79,1.79,0,0,0,0-.23,1.55,1.55,0,0,0,0-.22,1.77,1.77,0,0,0,0-.24A1.8,1.8,0,0,1,67,12a1.69,1.69,0,0,1,0-.23,1.66,1.66,0,0,1,0-.24,2.09,2.09,0,0,1,0-.25A2.09,2.09,0,0,1,67,11a2,2,0,0,0,0-.25,2,2,0,0,0,0-.25,2,2,0,0,0,0-.25l0-.25a2.29,2.29,0,0,1,0-.25,2,2,0,0,0,0-.25,2.09,2.09,0,0,0,0-.25l0-.26a2,2,0,0,1,0-.25,2.35,2.35,0,0,0,0-.27l0-.25a2,2,0,0,0,0-.25l0-.26a2.09,2.09,0,0,1,0-.25l0-.25a2.65,2.65,0,0,1,0-.27c0-.08,0-.16,0-.25l0-.25a1.69,1.69,0,0,0,0-.23l0-.25a2.18,2.18,0,0,0,0-.25l0-.24a1.77,1.77,0,0,0,0-.24l0-.23a1.79,1.79,0,0,0,0-.24l0-.22a1.64,1.64,0,0,0,0-.22l0-.23c0-.07,0-.14,0-.2l0-.23a1.27,1.27,0,0,0,0-.2l0-.2a1.21,1.21,0,0,1,0-.19l0-.2c0-.06,0-.12,0-.18a1.1,1.1,0,0,0,0-.18l0-.18a1,1,0,0,1,0-.17.86.86,0,0,0,0-.16l0-.16a.78.78,0,0,1,0-.14.61.61,0,0,0,0-.14.57.57,0,0,0,0-.13l0-.13a.43.43,0,0,1,0-.11.41.41,0,0,1,0-.11.37.37,0,0,1,0-.11.29.29,0,0,1,0-.09.25.25,0,0,1,0-.08s0,0,0-.07a.14.14,0,0,1,0-.07.07.07,0,0,1,0-.05V.58a.08.08,0,0,0,0,0,0,0,0,0,0,0,0Z"/><path class="cls-1" d="M72.24,6.62l.08,0,.13,0,.14,0h1.8l.26,0h.23l.24,0,.21,0,.19,0,.18,0,.15,0,.12,0h.12l0,0a.21.21,0,0,0,0,.06l0,.08.06.11s0,.08,0,.13l.07.15a1.22,1.22,0,0,1,.07.17,1.5,1.5,0,0,1,.09.18,1.54,1.54,0,0,0,.08.19,2,2,0,0,1,.1.21c0,.07.06.13.09.21l.1.24.1.22a1.6,1.6,0,0,0,.1.23l.09.25a2.56,2.56,0,0,1,.11.24l.1.24c0,.07.06.15.1.23a2.44,2.44,0,0,0,.1.24,2,2,0,0,0,.08.22,2,2,0,0,1,.1.21,1.08,1.08,0,0,0,.08.19c0,.07,0,.14.07.2a1.42,1.42,0,0,1,.08.18l.06.15a1.21,1.21,0,0,1,0,.14l.06.11a.3.3,0,0,0,0,.1.09.09,0,0,0,0,.07s0,0,0,0v0l0,0a.08.08,0,0,1,0,0,.15.15,0,0,0,0-.07l0-.1a.56.56,0,0,1,0-.12.74.74,0,0,1,0-.14l.06-.17c0-.05,0-.11,0-.18a1.46,1.46,0,0,1,.07-.19,1.72,1.72,0,0,1,.07-.21,1.42,1.42,0,0,1,.07-.22,2.09,2.09,0,0,0,.08-.23,1.55,1.55,0,0,1,.07-.23L79,9.59a2.41,2.41,0,0,1,.08-.25,2.6,2.6,0,0,1,.1-.25c0-.07,0-.15.08-.24s.06-.16.08-.23l.09-.24a1.55,1.55,0,0,1,.08-.23,2.09,2.09,0,0,0,.08-.23l.09-.19c0-.07,0-.13.07-.2a1.42,1.42,0,0,1,.08-.18,1.11,1.11,0,0,1,.07-.16L80,7.05A1.39,1.39,0,0,1,80,6.92a.21.21,0,0,1,.06-.08.16.16,0,0,1,0-.07l0-.06.06,0,.1,0a.34.34,0,0,1,.12,0l.14,0,.17,0h.19l.21,0h.21l.24,0h.22l.23,0h1.14l.2,0h.18l.17,0,.13,0,.12,0,.08,0s0,0,0,0h0s0,0,0,0v0s0,0,0,0V6.8l0,0a.2.2,0,0,1,0,.07A.14.14,0,0,0,84,7l0,.07,0,.08,0,.1,0,.09a.36.36,0,0,0,0,.11.76.76,0,0,1,0,.11s0,.07,0,.11a.61.61,0,0,1,0,.12.93.93,0,0,1,0,.13.56.56,0,0,0,0,.12l-.06.14a.58.58,0,0,1-.05.14.75.75,0,0,0,0,.16l-.07.15-.06.15a1.31,1.31,0,0,1-.05.15c0,.06,0,.12-.07.17l-.06.17a1.34,1.34,0,0,1-.07.18l-.07.18L83,9.8a1.34,1.34,0,0,1-.07.18.8.8,0,0,1-.07.2l-.07.19a1.54,1.54,0,0,1-.08.19,1.59,1.59,0,0,0-.07.2l-.08.21-.09.21-.08.2a1.72,1.72,0,0,1-.07.21c0,.08,0,.15-.08.21s-.06.15-.08.22l-.1.21-.09.22a2.09,2.09,0,0,1-.08.23c0,.07-.05.15-.08.22l-.1.24a1.43,1.43,0,0,0-.08.22,2.14,2.14,0,0,1-.1.22,2.25,2.25,0,0,0-.08.24,2.14,2.14,0,0,1-.1.22,2.25,2.25,0,0,0-.08.24c0,.07-.06.15-.1.23l-.09.24L81,15a2.44,2.44,0,0,1-.1.24c0,.08-.06.16-.08.23a2.44,2.44,0,0,0-.1.24l-.1.24c0,.07-.05.14-.08.22s-.07.16-.1.23,0,.17-.08.24a2.55,2.55,0,0,0-.13.29,2.18,2.18,0,0,1-.11.27l-.11.28-.12.26-.12.25a2.56,2.56,0,0,1-.11.24,1.92,1.92,0,0,0-.12.25,1.51,1.51,0,0,0-.11.22,2.53,2.53,0,0,0-.13.22l-.11.22a1.13,1.13,0,0,0-.12.21l-.13.2-.11.19-.13.2-.11.18a1.67,1.67,0,0,0-.12.16l-.13.17a1.77,1.77,0,0,1-.12.17.58.58,0,0,0-.11.15l-.13.14-.12.15-.11.13a.86.86,0,0,0-.13.14l-.13.12a.65.65,0,0,1-.12.11l-.11.11-.13.11a.58.58,0,0,1-.12.1l-.13.1a.52.52,0,0,1-.11.1l-.12.08a.57.57,0,0,1-.13.08l-.11.07-.12.07-.13.07-.11.06-.13.07-.12,0-.11.05-.13.05a.3.3,0,0,0-.11,0l-.12,0-.11,0-.13,0-.11,0-.13,0h-.23l-.11,0-.05,0a.1.1,0,0,1,0,0,.23.23,0,0,1-.07-.07.27.27,0,0,1-.07-.08.76.76,0,0,1-.08-.11.91.91,0,0,1-.07-.14L74,22.3a1.3,1.3,0,0,0-.08-.17,1.62,1.62,0,0,1-.1-.18,1.42,1.42,0,0,0-.08-.18,1.67,1.67,0,0,1-.08-.2l-.09-.21c0-.07,0-.14-.08-.2a2.09,2.09,0,0,1-.08-.23c0-.06,0-.13-.07-.2s-.05-.15-.07-.21,0-.15-.06-.21a1.46,1.46,0,0,1,0-.2,1.33,1.33,0,0,0,0-.19c0-.07,0-.13,0-.18l0-.17a.77.77,0,0,0,0-.15v-.14l0-.13a.19.19,0,0,1,0-.09l0-.06a.23.23,0,0,1,.07-.07l.08-.05a.28.28,0,0,1,.12,0l.11-.06.14,0,.15-.06.15,0,.18-.06.17,0,.18-.06.19,0,.19-.07.19-.07.18-.08.18-.1.18-.11.17-.11.17-.14.15-.14a2.09,2.09,0,0,1,.14-.17l.12-.17a1.24,1.24,0,0,0,.1-.2,2,2,0,0,0,.1-.21,2.17,2.17,0,0,0,.07-.24.08.08,0,0,0,0-.05.07.07,0,0,1,0-.06l0-.08,0-.09-.05-.09,0-.1a.76.76,0,0,1,0-.11l-.06-.13a.43.43,0,0,0,0-.12l-.07-.16a.83.83,0,0,0-.07-.13.77.77,0,0,0-.07-.16,1.11,1.11,0,0,1-.07-.16c0-.06,0-.12-.08-.17l-.09-.18a1.42,1.42,0,0,0-.08-.18l-.08-.18-.1-.2c0-.06,0-.13-.08-.19a1.86,1.86,0,0,1-.1-.2l-.1-.21-.09-.2a2,2,0,0,1-.1-.21L75,13c0-.08-.07-.15-.11-.22a1,1,0,0,0-.1-.21l-.11-.22a2.29,2.29,0,0,0-.1-.23l-.11-.22a2.14,2.14,0,0,0-.1-.22,1.51,1.51,0,0,0-.11-.22,2.18,2.18,0,0,1-.09-.23,1.51,1.51,0,0,1-.11-.22l-.1-.22c0-.08-.08-.14-.11-.21a2.14,2.14,0,0,0-.1-.22l-.1-.22-.1-.21-.09-.21a2,2,0,0,1-.1-.21l-.1-.2c0-.06,0-.12-.08-.19A1.74,1.74,0,0,0,73.1,9L73,8.77a.75.75,0,0,1-.08-.18l-.07-.18-.09-.17a1.11,1.11,0,0,0-.07-.16l-.07-.16-.07-.15,0-.14-.06-.14s0-.08,0-.12,0-.08,0-.11a.61.61,0,0,1-.05-.12.36.36,0,0,0,0-.09l0-.1a.64.64,0,0,0,0-.07.14.14,0,0,0,0-.07.11.11,0,0,1,0,0,.14.14,0,0,0,0-.06v0l0,0Z"/><path class="cls-1" d="M92.53,16.69s0,0,0,0l0,0,0-.06a.31.31,0,0,1,0-.08l0-.1a.37.37,0,0,0,0-.11c0-.05,0-.09,0-.14a.68.68,0,0,0,0-.14.76.76,0,0,0,0-.15v-.17a1.1,1.1,0,0,1,0-.18v-.18a1.48,1.48,0,0,1,0-.21v-.42a1.62,1.62,0,0,1,0-.22v-.92a1.69,1.69,0,0,1,0-.23v-.71a1.85,1.85,0,0,1,0-.24v-.46a1.64,1.64,0,0,0,0-.22v-.25a2.09,2.09,0,0,1,0-.25V11a2,2,0,0,0,0-.25v-.25c0-.07,0-.15,0-.23a1.77,1.77,0,0,1,0-.24V9.74a2,2,0,0,0,0-.23,1.93,1.93,0,0,0,0-.24,1.49,1.49,0,0,1,0-.21,1.7,1.7,0,0,1,0-.22V8.63a1.21,1.21,0,0,0,0-.19,1.36,1.36,0,0,0,0-.2,1,1,0,0,0,0-.18.86.86,0,0,0,0-.16.78.78,0,0,1,0-.16.76.76,0,0,1,0-.15.68.68,0,0,1,0-.14.41.41,0,0,1,0-.11.41.41,0,0,1,0-.11V7.14a.21.21,0,0,0,0-.06.23.23,0,0,0,0-.07l0,0s0,0,0,0l0,0,.1,0h.28l.2,0h1.16l.25,0h.49l.22,0,.21,0h.18L96,7l.12,0,.1,0a.06.06,0,0,1,.06,0,.38.38,0,0,1,.09.09l.07.11.06.16a1.29,1.29,0,0,1,0,.19.54.54,0,0,1,0,.25.57.57,0,0,0,0,.32c0,.05,0,0,.09-.14l.12-.12.11-.13L97,7.7l.11-.11.13-.1.13-.09.13-.09.14-.08.14-.07.14-.07L98,7l.16,0,.14,0,.15,0,.15,0h.77l.15,0,.15,0,.14,0,.16.06.15,0a.69.69,0,0,0,.15.07l.14.09.14.08.14.1.14.11.14.11a.68.68,0,0,0,.12.12l.14.14.11.14.13.16.11.16a1.74,1.74,0,0,0,.11.18l.11.18a.77.77,0,0,0,.1.18,1.67,1.67,0,0,0,.08.2,1.54,1.54,0,0,1,.08.19l.09.21a1.59,1.59,0,0,1,.07.2c0,.06,0,.13.07.2a1.6,1.6,0,0,0,0,.21l.06.2a1.55,1.55,0,0,0,0,.21,1.7,1.7,0,0,1,0,.22q0,.09,0,.21a1.12,1.12,0,0,1,0,.21,1.41,1.41,0,0,1,0,.2q0,.12,0,.21a1.79,1.79,0,0,1,0,.23,1.27,1.27,0,0,1,0,.2v.21a1.48,1.48,0,0,1,0,.21v.21a1.34,1.34,0,0,0,0,.21v.19a1.62,1.62,0,0,0,0,.21,1.36,1.36,0,0,0,0,.2l0,.19a1.15,1.15,0,0,1,0,.19l0,.2a1.09,1.09,0,0,0,0,.18l0,.18a1.16,1.16,0,0,0,0,.18l0,.17,0,.17c0,.05,0,.1,0,.15l0,.17,0,.13a.75.75,0,0,1,0,.16,1,1,0,0,1,0,.14l0,.12,0,.13a1065779169926.33,1065779169926.33,0,0,0-.08.22.31.31,0,0,0,0,.1l0,.09a.36.36,0,0,1,0,.09l0,.07a.24.24,0,0,0,0,.07.1.1,0,0,0,0,.05l0,0,0,0,0,0h0l-.12,0h-.12l-.17,0h-.19l-.21,0H99.71l-.23,0H99.1l-.17,0H98.8l-.08,0-.06,0h0V16.6a.25.25,0,0,1,0-.07.15.15,0,0,1,0-.07.3.3,0,0,1,0-.1s0-.07,0-.1a.5.5,0,0,1,0-.12l0-.13,0-.14a.69.69,0,0,0,0-.13l0-.17,0-.15c0-.07,0-.13,0-.18l0-.19a.8.8,0,0,0,0-.18l0-.18a1.29,1.29,0,0,1,0-.19q0-.12,0-.21l0-.19a1.49,1.49,0,0,0,0-.21l0-.2a1.49,1.49,0,0,0,0-.21c0-.07,0-.14,0-.21a1.5,1.5,0,0,1,0-.2,1.34,1.34,0,0,1,0-.2v-.79l0-.18a1.09,1.09,0,0,0,0-.18l0-.17a1.36,1.36,0,0,0,0-.17.83.83,0,0,0,0-.15.83.83,0,0,0,0-.15.91.91,0,0,0-.07-.14.54.54,0,0,0-.07-.13l-.07-.12-.1-.1a.43.43,0,0,0-.1-.09.2.2,0,0,0-.09-.07.33.33,0,0,0-.13-.07l-.12-.06-.14,0-.16,0h-.16l-.15,0-.16,0-.12.06a.33.33,0,0,0-.13.07l-.11.09a1.14,1.14,0,0,1-.11.11l-.08.11-.1.14-.07.16a1.11,1.11,0,0,0-.07.16c0,.06-.05.12-.07.17a1.89,1.89,0,0,1-.06.18,1.46,1.46,0,0,1,0,.2,1.29,1.29,0,0,1,0,.19c0,.08,0,.14,0,.21l0,.21,0,.22,0,.22a1.77,1.77,0,0,1,0,.23c0,.07,0,.14,0,.22a1.64,1.64,0,0,1,0,.22v1.32a1.49,1.49,0,0,0,0,.21v.19a1,1,0,0,0,0,.18v.18a.91.91,0,0,0,0,.17V16a.6.6,0,0,1,0,.12v.31a.14.14,0,0,1,0,.07v0s0,0,0,0l0,0h-.07l-.1,0h-.31l-.18,0h-.2l-.21,0H94.8l-.24,0H93.17l-.18,0H92.7l-.1,0Z"/><path class="cls-1" d="M107.92,6.67h.16l.15,0,.17,0,.15,0,.17,0,.16,0,.15,0,.17.06.17.07.15,0,.17.07.15.09.17.08.15.1.15.08.16.11.15.1a1,1,0,0,1,.15.11l.16.13a.71.71,0,0,1,.13.12.86.86,0,0,1,.14.13.6.6,0,0,1,.14.13.86.86,0,0,1,.14.13l.14.15a.86.86,0,0,0,.13.14.44.44,0,0,0,.12.15L112,9a1.83,1.83,0,0,1,.13.16,1,1,0,0,0,.11.17l.1.17.09.18a1,1,0,0,1,.1.17,1.62,1.62,0,0,0,.1.18c0,.06,0,.13.08.19a.75.75,0,0,0,.07.18,1.59,1.59,0,0,1,.07.2,1.46,1.46,0,0,0,.07.19,2.09,2.09,0,0,1,0,.21,1.33,1.33,0,0,1,0,.19c0,.08,0,.15,0,.21s0,.15,0,.21l0,.22a1.48,1.48,0,0,1,0,.21,1.83,1.83,0,0,1,0,.21v.42a1.23,1.23,0,0,1,0,.19,1.34,1.34,0,0,1,0,.2,1.23,1.23,0,0,0,0,.19,1.16,1.16,0,0,1,0,.18q0,.11,0,.18c0,.06,0,.12,0,.18l0,.17-.06.17a1,1,0,0,0-.05.16.71.71,0,0,0-.07.16l-.09.15a.71.71,0,0,1-.08.15.8.8,0,0,0-.08.16,1.13,1.13,0,0,0-.1.13.69.69,0,0,0-.11.13l-.11.12-.12.13a.68.68,0,0,1-.12.12l-.14.12-.14.11-.14.09-.15.1-.15.08-.17.09-.17.08-.18.07-.19.07a.75.75,0,0,0-.18.07l-.21.06-.21,0-.21,0-.22,0-.22,0-.24,0h-1.43l-.22,0-.23,0-.2,0a1,1,0,0,0-.21,0l-.21,0-.2-.05-.19-.06-.18,0-.18-.07-.17-.09a.77.77,0,0,1-.17-.07l-.16-.09-.15-.09-.16-.09-.14-.11-.14-.12-.12-.11a.74.74,0,0,1-.13-.12l-.12-.13-.11-.12-.1-.14a1,1,0,0,0-.11-.15.8.8,0,0,1-.08-.16,1,1,0,0,1-.09-.15l-.08-.17a1.11,1.11,0,0,1-.07-.16,1.22,1.22,0,0,1-.07-.17l-.06-.18a1.46,1.46,0,0,0-.05-.2,1.29,1.29,0,0,0,0-.19c0-.06,0-.13,0-.2l0-.2a1.49,1.49,0,0,1,0-.21,1.48,1.48,0,0,1,0-.21,2.09,2.09,0,0,1,0-.25v-.49a1.64,1.64,0,0,1,0-.23,1.66,1.66,0,0,1,0-.24,1.7,1.7,0,0,1,0-.22,1.43,1.43,0,0,1,0-.22,1.85,1.85,0,0,1,0-.23l.06-.21a1.94,1.94,0,0,0,0-.2,1.72,1.72,0,0,0,.07-.21l.09-.2a1.46,1.46,0,0,1,.07-.19,1.42,1.42,0,0,1,.08-.18,1.62,1.62,0,0,0,.1-.18,1.4,1.4,0,0,1,.09-.17,1.62,1.62,0,0,1,.1-.18l.11-.15.11-.17.11-.15.12-.14.12-.16.13-.13L105,8l.14-.12.13-.12.13-.12.14-.1.14-.11.14-.08.14-.1.14-.08.14-.07.14-.09.15,0,.14-.06.14,0,.14-.06.14,0,.14,0,.13,0h.27l.12,0Zm1.91,4.55c0-.05,0-.09,0-.14l-.06-.13a.61.61,0,0,1-.07-.14l-.08-.13a.64.64,0,0,0-.1-.13l-.11-.14-.11-.12a.69.69,0,0,0-.13-.11.71.71,0,0,0-.14-.1.56.56,0,0,0-.15-.1l-.15-.07-.17-.05-.18,0-.18,0-.2,0-.2.05a.49.49,0,0,0-.17.06l-.14.08a.56.56,0,0,0-.15.1l-.13.12-.12.14a.91.91,0,0,0-.11.16.56.56,0,0,0-.1.15l-.08.17a.48.48,0,0,0-.07.18l-.06.16a1.36,1.36,0,0,0,0,.17l0,.17v.16c0,.06,0,.11,0,.16l0,.14a1.34,1.34,0,0,0,.07.18l.09.15a.58.58,0,0,0,.11.15l.12.13.14.1.15.09.17.07.17.06.18,0H108l.19,0,.2,0,.21,0,.19-.05.13,0,.13,0,.14-.07a.71.71,0,0,0,.14-.1l.13-.1a.68.68,0,0,0,.12-.12l.1-.14.1-.14a1.22,1.22,0,0,0,.07-.17.94.94,0,0,0,0-.16,1.34,1.34,0,0,0,0-.2.41.41,0,0,0,0-.19A1.12,1.12,0,0,0,109.83,11.22Z"/><path class="cls-1" d="M113.43,9.26a.22.22,0,0,1-.07-.09.31.31,0,0,1-.07-.09,1,1,0,0,1,0-.14l0-.15,0-.19V8.22c0-.07,0-.14,0-.21a1.25,1.25,0,0,1,0-.21,1.12,1.12,0,0,1,0-.21,1.55,1.55,0,0,1,0-.21c0-.07,0-.14,0-.21L113.4,7s0-.11.07-.17a1,1,0,0,1,.07-.15.47.47,0,0,1,.07-.12l.08-.1a.16.16,0,0,1,.08-.06h.38l.21,0h.23l.27,0,.25,0,.25,0,.22,0,.2,0H116l0,0v0a.28.28,0,0,1,0-.09.59.59,0,0,0,0-.14.86.86,0,0,0,0-.16l0-.23,0-.22a2.11,2.11,0,0,1,0-.26l0-.25,0-.27,0-.25a2,2,0,0,0,0-.23l0-.23,0-.18,0-.14a.31.31,0,0,0,0-.09s0,0,0,0a.18.18,0,0,1,.07,0l.11,0,.14,0,.18,0h1.58l.21,0,.2,0h.18l.14,0,.11,0,.07,0a0,0,0,0,0,0,0,.14.14,0,0,0,0,.06.31.31,0,0,1,0,.09.53.53,0,0,1,0,.13.68.68,0,0,1,0,.14.86.86,0,0,1,0,.16l0,.2a1.62,1.62,0,0,0,0,.21,1.64,1.64,0,0,0,0,.22,2.09,2.09,0,0,0,0,.24c0,.07,0,.15,0,.23a2.65,2.65,0,0,0,0,.27v.25a2.35,2.35,0,0,1,0,.26,2.45,2.45,0,0,0,0,.27h0l.1,0,.14,0,.18,0,.21,0,.24,0,.25-.05.25,0,.23,0,.23,0H122l0,0,.06.07a1.12,1.12,0,0,1,0,.13.88.88,0,0,1,0,.15c0,.06,0,.11,0,.17l0,.19c0,.08,0,.15,0,.23a1.5,1.5,0,0,1,0,.22,1.62,1.62,0,0,1,0,.22v.46a1.62,1.62,0,0,1,0,.22,1.49,1.49,0,0,1,0,.21c0,.07,0,.13,0,.18l0,.17a.84.84,0,0,0,0,.12l-.06.1a.1.1,0,0,1,0,.06h-1.63l-.24,0h-.36l-.11,0h0v1.05a1.49,1.49,0,0,0,0,.21v.65c0,.07,0,.15,0,.24v.48a2.35,2.35,0,0,0,0,.27v.25a2.11,2.11,0,0,1,0,.26v.26a2.44,2.44,0,0,0,0,.27v.26a2.29,2.29,0,0,0,0,.25,2.53,2.53,0,0,1,0,.27,2.18,2.18,0,0,1,0,.25v.23a2.29,2.29,0,0,0,0,.25,1.77,1.77,0,0,0,0,.23c0,.07,0,.14,0,.22a1.49,1.49,0,0,1,0,.21,1.21,1.21,0,0,1,0,.19,1.36,1.36,0,0,0,0,.2.86.86,0,0,0,0,.16l0,.17a.66.66,0,0,1,0,.14.5.5,0,0,1,0,.12s0,.06,0,.1a.19.19,0,0,1,0,.08l0,.07a.11.11,0,0,1,0,0h-.11l-.13,0-.13,0h-.52l-.21,0H116.9l-.22,0h-.58l-.17,0-.15,0h-.13l-.11,0-.08,0h0a0,0,0,0,1,0,0,.05.05,0,0,1,0,0s0,0,0,0a.15.15,0,0,1,0-.07.14.14,0,0,1,0-.07v-.08a.31.31,0,0,1,0-.1v-.22s0-.08,0-.11V15.6s0-.1,0-.14v-.31a1,1,0,0,1,0-.17v-.16a.9.9,0,0,1,0-.18v-.18a1.34,1.34,0,0,0,0-.2c0-.06,0-.13,0-.19a1.49,1.49,0,0,1,0-.21,1.48,1.48,0,0,1,0-.21,1.83,1.83,0,0,1,0-.21,1.48,1.48,0,0,1,0-.21,1.55,1.55,0,0,0,0-.22,1.64,1.64,0,0,0,0-.22l0-.24a1.62,1.62,0,0,1,0-.22l0-.24a1.69,1.69,0,0,1,0-.23l0-.24a1.93,1.93,0,0,1,0-.24l0-.25a1.69,1.69,0,0,0,0-.23l0-.25,0-.24a1.85,1.85,0,0,0,0-.23l0-.26,0-.23a1,1,0,0,1,0-.24l0-.25,0,0h-.47l-.25,0h-.26l-.27,0h-.91l-.14,0Z"/><path class="cls-1" d="M122.93,16.64h0a0,0,0,0,1,0,0,0,0,0,0,0,0,0v0a.17.17,0,0,1,0-.05.13.13,0,0,0,0-.06v-.07s0-.05,0-.08v-.1a.3.3,0,0,1,0-.1V16a.53.53,0,0,1,0-.13.5.5,0,0,0,0-.12v-.13a.66.66,0,0,0,0-.14v-.15c0-.05,0-.1,0-.15V15a.88.88,0,0,0,0-.16v-.19a1.09,1.09,0,0,0,0-.18V14.3a1.23,1.23,0,0,0,0-.19v-.4a1.62,1.62,0,0,1,0-.21v-.23a1.41,1.41,0,0,1,0-.2v-.23a1.64,1.64,0,0,0,0-.23v-.46a1.93,1.93,0,0,0,0-.24v-.48a2.29,2.29,0,0,1,0-.25v-.5c0-.09,0-.17,0-.25V9.91a2.09,2.09,0,0,0,0-.25V8.88a2.11,2.11,0,0,0,0-.26v-1a2.18,2.18,0,0,1,0-.25V6.06a2.11,2.11,0,0,1,0-.25V1.14a.43.43,0,0,1,0-.11V.68s0,0,0,0V.58h0l.06,0,.11,0,.14,0,.17,0h.19l.22,0h1.2l.22,0h.21l.18,0h.15l.11,0a.11.11,0,0,1,.07,0l0,0a.21.21,0,0,1,0,.06l0,.05,0,.07a.43.43,0,0,0,0,.07l0,.1a.25.25,0,0,0,0,.09l0,.12,0,.12a.5.5,0,0,1,0,.13l0,.13,0,.14a.75.75,0,0,0,0,.16l0,.16a.88.88,0,0,0,0,.17l0,.18,0,.18,0,.18a1.36,1.36,0,0,1,0,.2,1.33,1.33,0,0,1,0,.19c0,.07,0,.13,0,.2l0,.21,0,.2,0,.21,0,.22a1.34,1.34,0,0,0,0,.21l0,.23,0,.22,0,.22,0,.22,0,.22a1.77,1.77,0,0,1,0,.23l0,.22,0,.22,0,.22c0,.08,0,.15,0,.23l0,.21,0,.22c0,.06,0,.13,0,.21a.25.25,0,0,1,0,.21c0,.1,0,.16,0,.19s.07,0,.13-.11a.43.43,0,0,1,.12-.11.39.39,0,0,0,.14-.1l.16-.1.15-.08L127.7,7l.16-.07a.52.52,0,0,1,.15-.07l.17,0,.16-.06.17,0,.17,0,.16,0h.52l.16,0a.48.48,0,0,1,.18,0l.17,0,.17,0,.16.06.16.06.16.07.16.08.15.08.14.1.14.11.14.11.14.13a.46.46,0,0,0,.12.12.91.91,0,0,1,.11.16.64.64,0,0,1,.13.15,1.19,1.19,0,0,1,.09.15l.12.17a1.51,1.51,0,0,0,.09.18,1.5,1.5,0,0,1,.09.18,1.42,1.42,0,0,0,.08.18,1.42,1.42,0,0,1,.08.18,1.59,1.59,0,0,1,.07.2,1.46,1.46,0,0,1,.07.19,1.46,1.46,0,0,1,.07.19l.06.21c0,.07,0,.14.05.21a1.6,1.6,0,0,1,0,.21c0,.07,0,.13,0,.21s0,.13,0,.21a1.55,1.55,0,0,0,0,.21l0,.22,0,.21c0,.07,0,.15,0,.22l0,.21a1.62,1.62,0,0,0,0,.22c0,.07,0,.13,0,.21v.21a1.64,1.64,0,0,0,0,.22v.42a1.5,1.5,0,0,1,0,.2v.2a1.62,1.62,0,0,1,0,.21,1.21,1.21,0,0,1,0,.19.9.9,0,0,1,0,.18,1.34,1.34,0,0,1,0,.2c0,.05,0,.11,0,.18l0,.18a1.11,1.11,0,0,1,0,.17c0,.05,0,.11,0,.16l0,.17a.77.77,0,0,0,0,.15c0,.05,0,.1,0,.16l0,.13a.5.5,0,0,0,0,.13l0,.13a1,1,0,0,0,0,.12l0,.1a.36.36,0,0,0,0,.11.35.35,0,0,0-.05.08.29.29,0,0,1,0,.09.33.33,0,0,0,0,.06.21.21,0,0,1,0,.06l0,.06,0,0,0,0,0,0-.09,0-.09,0H132l-.14,0h-.53l-.19,0h-1.53l-.21,0H129l-.18,0h-.15l-.14,0-.13,0s0,0,0,0v0a.13.13,0,0,1,0-.06.19.19,0,0,1,0-.08v-.09a.37.37,0,0,0,0-.11.36.36,0,0,0,0-.11l0-.14s0-.09,0-.14l0-.15a1,1,0,0,0,0-.17,1,1,0,0,1,0-.16,1.41,1.41,0,0,0,0-.18l0-.2a1.16,1.16,0,0,1,0-.18l0-.21,0-.19q0-.12,0-.21a2.07,2.07,0,0,0,0-.22l0-.21a1.48,1.48,0,0,0,0-.21l0-.22a1.48,1.48,0,0,0,0-.21c0-.08,0-.14,0-.21v-.21a1.48,1.48,0,0,0,0-.21V12a1.21,1.21,0,0,0,0-.19,1.28,1.28,0,0,0,0-.19l0-.18,0-.16a1,1,0,0,0,0-.17.83.83,0,0,0,0-.15l-.06-.14a.5.5,0,0,1,0-.13l-.09-.11a1,1,0,0,1-.08-.11l-.1-.08-.1-.07a.24.24,0,0,0-.11-.06l-.14,0-.13,0h-.1l-.09,0-.07,0-.06.05a.28.28,0,0,0-.07.09l-.06.08a.76.76,0,0,0,0,.11l-.06.13a.77.77,0,0,0,0,.15.88.88,0,0,0-.05.15,1,1,0,0,0,0,.17,1,1,0,0,0,0,.17l0,.19a1.34,1.34,0,0,1,0,.2V12a1.48,1.48,0,0,0,0,.21v.89a1.7,1.7,0,0,1,0,.22v.24a1.7,1.7,0,0,1,0,.22,1.94,1.94,0,0,1,0,.24,1.62,1.62,0,0,0,0,.22,1.49,1.49,0,0,0,0,.21,1.55,1.55,0,0,0,0,.22,1.48,1.48,0,0,0,0,.21V15a3.76,3.76,0,0,1,0,.37,1.41,1.41,0,0,1,0,.18v.16s0,.1,0,.15v.53s0,0,0,0,0,0,0,0l0,0a.17.17,0,0,1-.1,0l-.11,0-.13,0-.16,0-.17,0-.2,0-.2,0-.23,0h-.22l-.24,0h-.7l-.24,0h-.45l-.2,0h-.53l-.14,0-.11,0-.1,0Z"/><path class="cls-1" d="M136.29.15l.17.07.17.1.15.1a.45.45,0,0,1,.14.11.65.65,0,0,1,.12.11l.13.12.11.14.1.14.08.16a.53.53,0,0,1,.08.15l.06.15a.58.58,0,0,1,.06.17c0,.05,0,.11,0,.16l0,.17a1,1,0,0,1,0,.17v.18a.88.88,0,0,0,0,.17.47.47,0,0,1,0,.16.8.8,0,0,1,0,.18,1.09,1.09,0,0,0,0,.17,1.07,1.07,0,0,1-.07.15l-.09.16a1.19,1.19,0,0,1-.09.15l-.1.14a.76.76,0,0,0-.11.14l-.13.11-.12.12-.14.1-.15.1-.16.08-.15.08-.17.06-.16.06-.18,0-.19,0H135l-.2,0-.19,0-.17-.07a.59.59,0,0,1-.16-.07l-.17-.11a.67.67,0,0,1-.14-.11.8.8,0,0,1-.13-.13l-.12-.14a.56.56,0,0,1-.1-.15,1,1,0,0,1-.1-.17l-.08-.16a1.22,1.22,0,0,1-.07-.17,1.21,1.21,0,0,1-.05-.18,1.21,1.21,0,0,1,0-.18,1.24,1.24,0,0,1,0-.18q0-.1,0-.18V2.13a1,1,0,0,0,0-.17c0-.06,0-.11,0-.17a1,1,0,0,1,0-.16.46.46,0,0,1,.07-.16.51.51,0,0,1,.07-.15.71.71,0,0,1,.08-.15l.1-.14a.53.53,0,0,1,.11-.14,1.34,1.34,0,0,1,.11-.14L134,.63l.14-.12.14-.09.15-.1a.8.8,0,0,1,.16-.08.69.69,0,0,1,.15-.07l.17-.06.16,0,.17,0,.18,0h.35L136,0l.18,0ZM134,6.7l0,0a.13.13,0,0,1,0,.06.15.15,0,0,0,0,.07L134,7a.3.3,0,0,1,0,.1.37.37,0,0,0,0,.11l0,.12a.71.71,0,0,0,0,.14l0,.16a.86.86,0,0,0,0,.16l0,.17,0,.18a1.21,1.21,0,0,1,0,.19l0,.2a1.34,1.34,0,0,0,0,.21q0,.09,0,.21l0,.22a1.62,1.62,0,0,1,0,.22l0,.24a1.64,1.64,0,0,0,0,.23c0,.09,0,.17,0,.24a2.11,2.11,0,0,0,0,.25l0,.25c0,.08,0,.17,0,.25l0,.25a2.09,2.09,0,0,1,0,.25,2.09,2.09,0,0,0,0,.25l0,.27a2.29,2.29,0,0,1,0,.25,2.18,2.18,0,0,1,0,.25,2,2,0,0,0,0,.25,2,2,0,0,0,0,.25,2.18,2.18,0,0,1,0,.25,2,2,0,0,1,0,.23,1.93,1.93,0,0,1,0,.24v.24a1.55,1.55,0,0,0,0,.22v.22a1.65,1.65,0,0,1,0,.21v.94a.88.88,0,0,0,0,.17v.15a.61.61,0,0,0,0,.14V16a.41.41,0,0,1,0,.11.3.3,0,0,1,0,.1.19.19,0,0,1,0,.08l0,.07a.07.07,0,0,0,0,.05l0,.05,0,0,.08,0,.11,0,.13,0,.15,0h.18l.2,0,.19,0h.91l.22,0h.23l.23,0h.62l.18,0h.17l.14,0,.11,0,.1,0s0,0,0,0l.05,0a.13.13,0,0,0,0-.06l0-.07,0-.08a.28.28,0,0,0,0-.09l0-.11a.53.53,0,0,1,0-.12.51.51,0,0,1,0-.13,798179042291.33,798179042291.33,0,0,1,0-.3v-.17a1,1,0,0,0,0-.17,1.21,1.21,0,0,1,0-.19v-.6c0-.07,0-.15,0-.22V14a1.77,1.77,0,0,0,0-.23V13a2.09,2.09,0,0,0,0-.24v-.25a2.29,2.29,0,0,0,0-.25V12a2,2,0,0,1,0-.25c0-.08,0-.16,0-.25a2.46,2.46,0,0,0,0-.26V11a2.09,2.09,0,0,1,0-.25,1.94,1.94,0,0,1,0-.24,2,2,0,0,1,0-.25,2,2,0,0,1,0-.25,1.64,1.64,0,0,1,0-.23,1.93,1.93,0,0,1,0-.24l0-.22a1.55,1.55,0,0,0,0-.22,1.79,1.79,0,0,0,0-.23,1.62,1.62,0,0,0,0-.21,1.23,1.23,0,0,1,0-.19l0-.2a1.23,1.23,0,0,0,0-.19,1.09,1.09,0,0,0,0-.18,1,1,0,0,1,0-.17s0-.09,0-.15a.68.68,0,0,0,0-.14.66.66,0,0,0,0-.14.53.53,0,0,1,0-.12.52.52,0,0,1,0-.11l0-.1a.28.28,0,0,0,0-.09.23.23,0,0,0,0-.07l0,0a.06.06,0,0,1,0,0h0s0,0-.06,0L137,6.64l-.14,0-.16,0-.18,0-.21,0h-.71l-.24,0h-.23l-.23,0h-.4l-.16,0-.16,0-.1,0s-.05,0-.06,0Z"/><path class="cls-1" d="M138.54,16.69s0,0,0,0l0,0,0-.06a.31.31,0,0,1,0-.08l0-.1a.37.37,0,0,0,0-.11c0-.05,0-.09,0-.14a.68.68,0,0,0,0-.14.76.76,0,0,0,0-.15v-.17a1.1,1.1,0,0,1,0-.18v-.18a1.48,1.48,0,0,1,0-.21v-.42a1.62,1.62,0,0,1,0-.22v-.92a1.69,1.69,0,0,1,0-.23v-.71a1.85,1.85,0,0,1,0-.24v-.46a1.64,1.64,0,0,0,0-.22v-.25a2.09,2.09,0,0,1,0-.25V11a2,2,0,0,0,0-.25v-.25c0-.07,0-.15,0-.23a1.77,1.77,0,0,1,0-.24V9.74a2,2,0,0,0,0-.23,1.93,1.93,0,0,0,0-.24,1.49,1.49,0,0,1,0-.21,1.7,1.7,0,0,1,0-.22V8.63a1.21,1.21,0,0,0,0-.19,1.36,1.36,0,0,0,0-.2,1,1,0,0,0,0-.18.86.86,0,0,0,0-.16.78.78,0,0,1,0-.16.76.76,0,0,1,0-.15.68.68,0,0,1,0-.14.41.41,0,0,1,0-.11.41.41,0,0,1,0-.11V7.14a.21.21,0,0,0,0-.06.23.23,0,0,0,0-.07l0,0s0,0,0,0l.06,0,.09,0h.28l.2,0h1.16l.25,0h.49l.22,0,.21,0h.18L142,7l.12,0,.1,0a.06.06,0,0,1,.06,0,.38.38,0,0,1,.09.09l.07.11.06.16a1.29,1.29,0,0,1,0,.19.54.54,0,0,1,0,.25.57.57,0,0,0,0,.32c0,.05,0,0,.09-.14l.12-.12.11-.13L143,7.7l.11-.11.13-.1.13-.09.13-.09.14-.08a.61.61,0,0,1,.14-.07l.14-.07L144,7l.15,0,.14,0,.15,0,.15,0h.77l.15,0,.15,0,.14,0,.16.06.15,0a.69.69,0,0,0,.15.07l.14.09.14.08.14.1.14.11.14.11a.68.68,0,0,0,.12.12l.14.14.11.14.13.16.11.16a1.74,1.74,0,0,0,.11.18l.11.18a.77.77,0,0,0,.1.18,1.67,1.67,0,0,0,.08.2,1.54,1.54,0,0,1,.08.19l.09.21a1.59,1.59,0,0,1,.07.2c0,.06,0,.13.07.2s0,.14.05.21l.06.2a1.55,1.55,0,0,0,0,.21,1.7,1.7,0,0,1,0,.22q0,.09,0,.21a1.12,1.12,0,0,1,0,.21,1.41,1.41,0,0,1,0,.2q0,.12,0,.21a1.79,1.79,0,0,1,0,.23,1.27,1.27,0,0,1,0,.2v.21a1.48,1.48,0,0,1,0,.21v.21a1.34,1.34,0,0,0,0,.21v.19a1.62,1.62,0,0,0,0,.21,1.36,1.36,0,0,0,0,.2l0,.19a1.15,1.15,0,0,1,0,.19l0,.2a1.09,1.09,0,0,0,0,.18l0,.18a1.16,1.16,0,0,0,0,.18l0,.17,0,.17c0,.05,0,.1,0,.15l0,.17,0,.13a.75.75,0,0,1,0,.16,1,1,0,0,1,0,.14l0,.12,0,.13a504084742532.35,504084742532.35,0,0,1-.08.22.31.31,0,0,0,0,.1l0,.09a.36.36,0,0,1,0,.09l0,.07a.24.24,0,0,0,0,.07.1.1,0,0,0,0,.05l0,0,0,0,0,0h0l-.12,0h-.12l-.17,0h-.19l-.21,0h-1.18l-.23,0h-.38l-.17,0h-.13l-.08,0-.06,0h0V16.6a.25.25,0,0,1,0-.07.15.15,0,0,1,0-.07.3.3,0,0,1,0-.1.44.44,0,0,0,0-.1.5.5,0,0,1,0-.12l0-.13,0-.14a.69.69,0,0,0,.05-.13l0-.17,0-.15c0-.07,0-.13,0-.18l0-.19a.8.8,0,0,0,0-.18l0-.18a1.29,1.29,0,0,1,0-.19q0-.12,0-.21l0-.19a1.49,1.49,0,0,0,0-.21l0-.2a1.49,1.49,0,0,0,0-.21,1.49,1.49,0,0,0,0-.21,1.5,1.5,0,0,1,0-.2,1.34,1.34,0,0,1,0-.2v-.79l0-.18a1.09,1.09,0,0,0,0-.18l0-.17a1.36,1.36,0,0,0,0-.17.83.83,0,0,0,0-.15.83.83,0,0,0,0-.15l-.07-.14a.54.54,0,0,0-.07-.13l-.07-.12-.1-.1a.43.43,0,0,0-.1-.09.2.2,0,0,0-.09-.07.33.33,0,0,0-.13-.07l-.12-.06-.14,0-.15,0h-.17l-.15,0-.16,0-.12.06a.33.33,0,0,0-.13.07l-.11.09-.11.11-.08.11-.1.14-.07.16a1.11,1.11,0,0,0-.07.16c0,.06-.05.12-.07.17a1.89,1.89,0,0,1-.06.18,1.46,1.46,0,0,1,0,.2,1.29,1.29,0,0,1,0,.19c0,.08,0,.14,0,.21l0,.21,0,.22,0,.22a1.77,1.77,0,0,1,0,.23c0,.07,0,.14,0,.22a1.64,1.64,0,0,1,0,.22v1.32a1.49,1.49,0,0,0,0,.21v.19a1,1,0,0,0,0,.18v.18a.91.91,0,0,0,0,.17V16a.6.6,0,0,1,0,.12v.31a.14.14,0,0,1,0,.07v0s0,0,0,0l0,0h-.07l-.1,0h-.31l-.18,0h-.2l-.21,0h-.49l-.24,0h-1.39l-.18,0h-.29l-.1,0Z"/><path class="cls-1" d="M149.75,18.67v-.06a.16.16,0,0,1,0-.07l.07-.05.1-.06a.47.47,0,0,1,.12-.07l.14-.05.17-.06.18-.07.21-.05.19-.05.22,0,.23,0a.78.78,0,0,1,.22,0l.22-.05.21,0,.21,0,.21,0h.19l.17,0H153l.12,0,.08,0a.18.18,0,0,1,.07.05.1.1,0,0,1,.06.05,259510991862.2,259510991862.2,0,0,0,.08.14l0,.08.06.09.05.07.09.08.11.07.15.07.18,0,.24,0h.26l.11,0,.12,0a.21.21,0,0,1,.11,0l.11-.06.11-.06.12-.06.12-.09a.52.52,0,0,1,.11-.1l.11-.11a1.31,1.31,0,0,0,.11-.12l.11-.13a.56.56,0,0,0,.1-.15,1,1,0,0,1,.1-.15.75.75,0,0,1,.08-.18l.08-.2a1,1,0,0,0,.07-.21q0-.09.06-.21c0-.08,0-.16,0-.23a1.17,1.17,0,0,0,0-.27,2.11,2.11,0,0,0,0-.26,2.71,2.71,0,0,0,0-.29.81.81,0,0,1,0-.31.57.57,0,0,0,0-.32s0,0-.08.13a.58.58,0,0,1-.1.12l-.11.13-.09.11-.12.11-.11.1-.11.1-.12.08-.11.08-.13.08-.12.09-.13.07-.13.05-.12.07-.14.06-.14,0-.12,0-.14,0-.14,0-.14,0-.14,0-.14,0h-1l-.13,0-.14,0-.14,0-.14,0-.13,0-.13,0a.33.33,0,0,1-.14,0l-.13,0-.14-.06-.12-.05-.13-.07-.12-.06L151,16a.35.35,0,0,1-.12-.07l-.12-.09-.12-.08-.11-.1-.11-.08-.11-.1-.1-.11-.1-.1a.52.52,0,0,1-.1-.11.54.54,0,0,1-.09-.12l-.09-.11c0-.05-.07-.09-.09-.13s-.05-.09-.07-.12l-.09-.14s-.05-.08-.07-.13l-.07-.14-.07-.14a.88.88,0,0,0,0-.15s0-.1-.06-.15,0-.1-.05-.15a1.24,1.24,0,0,0,0-.16l0-.16a1.36,1.36,0,0,1,0-.17l0-.17a.86.86,0,0,1,0-.16,1.41,1.41,0,0,1,0-.18,1.15,1.15,0,0,1,0-.19v-.37a1.09,1.09,0,0,1,0-.18,1.36,1.36,0,0,1,0-.2,1.27,1.27,0,0,1,0-.2,1.12,1.12,0,0,1,0-.21q0-.12,0-.21a1.55,1.55,0,0,1,0-.21,1.77,1.77,0,0,1,0-.2l.06-.19c0-.05,0-.12.05-.18s0-.13.06-.18,0-.13,0-.18a.67.67,0,0,0,.07-.18,1.22,1.22,0,0,0,.07-.17l.09-.17a1.19,1.19,0,0,1,.08-.16.8.8,0,0,0,.08-.16A1,1,0,0,0,150,9l.08-.15.1-.14.1-.14.09-.14.11-.12.11-.13a.4.4,0,0,1,.1-.12l.11-.11.13-.12.11-.11.12-.09.12-.1.12-.1.13-.08.12-.09.14-.08.12-.07.13-.07.14,0,.14-.07.12-.05.14,0,.14,0,.14,0,.14,0,.14,0h.12l.14,0h.14l.14,0h.14l.14,0h.14l.14,0h.14l.12,0,.14,0,.12,0,.14,0,.13,0,.12.06.13.06.12.07.13.06.12.09.13.08.11.09.11.09a.29.29,0,0,1,.11.11c.07.11.1.15.11.1a.84.84,0,0,0,0-.35.59.59,0,0,1,0-.23.92.92,0,0,1,0-.16.19.19,0,0,1,.07-.11l.11-.11.08,0,.13,0,.15,0a.71.71,0,0,1,.2,0l.21,0,.22,0,.23,0h.7l.19,0,.17,0,.14.06a.13.13,0,0,1,.1.07.22.22,0,0,1,0,.08.14.14,0,0,0,0,.06.25.25,0,0,0,0,.08A.15.15,0,0,1,159,7a.3.3,0,0,1,0,.1l0,.08a.37.37,0,0,0,0,.11l0,.1a.41.41,0,0,0,0,.12l0,.12a.57.57,0,0,0,0,.13l0,.13,0,.14a.81.81,0,0,1,0,.15l0,.15,0,.16,0,.16,0,.17,0,.17,0,.18,0,.18a1.21,1.21,0,0,0,0,.19l0,.2,0,.19,0,.2a1.83,1.83,0,0,0,0,.21l0,.21,0,.2,0,.21a1.55,1.55,0,0,0,0,.22q0,.12,0,.21l0,.24c0,.07,0,.15,0,.22l0,.22a1.93,1.93,0,0,1,0,.24l0,.22a2,2,0,0,1,0,.24l0,.24c0,.08,0,.16,0,.23a2.11,2.11,0,0,1,0,.25,1.85,1.85,0,0,1,0,.24l0,.3c0,.1,0,.19,0,.3v.29a2.46,2.46,0,0,1,0,.28,2.44,2.44,0,0,0,0,.27v1.06a2.09,2.09,0,0,0,0,.25,1.94,1.94,0,0,1,0,.24,1.69,1.69,0,0,1,0,.23,1.85,1.85,0,0,1,0,.24,1.64,1.64,0,0,0,0,.22l0,.22a1.25,1.25,0,0,1,0,.21q0,.12,0,.21c0,.08,0,.14,0,.21a1.29,1.29,0,0,1,0,.19l0,.2a1.29,1.29,0,0,0,0,.19l-.06.18a.47.47,0,0,1,0,.17c0,.07,0,.13-.05.18l-.06.17a.88.88,0,0,0,0,.15c0,.06-.05.11-.07.17l-.06.14a1,1,0,0,0-.07.15l-.08.14-.07.14-.09.14-.08.12-.08.13-.1.11-.1.11a.87.87,0,0,1-.09.11l-.1.11-.11.1a.52.52,0,0,0-.11.1l-.11.08-.13.1-.12.08a.57.57,0,0,1-.13.08l-.13.07-.13.07-.14.07a.61.61,0,0,0-.14.07l-.15.06-.16.05-.15.06-.17,0-.16,0-.17,0-.18.05-.17,0-.19.05h-.18l-.21,0-.21,0-.21,0H154l-.19,0-.18,0-.18,0-.19,0-.18,0-.16,0-.17-.05-.17-.06-.16,0-.16-.07-.15-.07L152,22l-.14-.08-.15-.08-.14-.1-.13-.11-.14-.1-.12-.13-.13-.11-.11-.13-.11-.13-.11-.14a1.3,1.3,0,0,1-.1-.15l-.11-.15-.08-.16a1.4,1.4,0,0,1-.1-.16c0-.06,0-.12-.08-.17a1.5,1.5,0,0,0-.09-.18,1.71,1.71,0,0,0-.07-.18c0-.07-.05-.13-.07-.2a1.39,1.39,0,0,1-.06-.19q0-.12-.06-.21l-.06-.21A1.74,1.74,0,0,0,149.75,18.67Zm5.56-7a1.46,1.46,0,0,0,.05-.2,1.21,1.21,0,0,0,0-.18,1.21,1.21,0,0,1,0-.19,1.34,1.34,0,0,0,0-.2,1.41,1.41,0,0,0,0-.18.94.94,0,0,1,0-.16.75.75,0,0,0-.07-.18.77.77,0,0,0-.07-.16,1.3,1.3,0,0,1-.1-.15,1.34,1.34,0,0,0-.11-.14,1.31,1.31,0,0,1-.12-.11l-.16-.11a.53.53,0,0,0-.15-.08l-.15-.06-.17,0-.16,0h-.17a.51.51,0,0,0-.17,0l-.17,0-.15.07-.15.09-.14.11A1.49,1.49,0,0,0,153,10l-.12.14-.12.17-.11.19a.71.71,0,0,1-.07.16l0,.16a.85.85,0,0,0,0,.17l0,.17v.16a1,1,0,0,0,0,.17l0,.17a.88.88,0,0,0,.05.15.61.61,0,0,0,.07.17.41.41,0,0,0,.08.14l.08.13.13.13a1.31,1.31,0,0,0,.12.11l.16.1a.59.59,0,0,0,.16.07l.18.07.18,0h.37l.15,0,.17,0a.35.35,0,0,1,.15-.07l.14-.1.12-.1.13-.12a.76.76,0,0,1,.11-.14l.1-.14a.53.53,0,0,1,.08-.15C155.27,11.76,155.29,11.7,155.31,11.65Z"/><g class="cls-2"><path class="cls-1" d="M166.37,14.93l0,.19v.19a1.25,1.25,0,0,1,0,.21.48.48,0,0,1,0,.18,1.33,1.33,0,0,1,0,.19.7.7,0,0,1-.06.19.75.75,0,0,1-.08.18l-.1.18-.11.16a1.12,1.12,0,0,1-.13.16l-.14.16-.15.13-.16.13-.18.12a1,1,0,0,1-.17.1l-.19.1-.2.06-.21.05-.21,0h-.4a.52.52,0,0,1-.21,0l-.19,0-.19-.07-.19-.1-.18-.09-.16-.13a.34.34,0,0,1-.16-.13l-.16-.14a.93.93,0,0,1-.13-.15s-.09-.1-.13-.16a1,1,0,0,1-.11-.17l-.1-.18-.06-.19c0-.07-.05-.13-.07-.2l0-.17a1.34,1.34,0,0,1,0-.2v-.19a1.48,1.48,0,0,1,0-.21,1.83,1.83,0,0,1,0-.21c0-.06,0-.13.05-.19l.06-.21a1.54,1.54,0,0,1,.08-.19,1.08,1.08,0,0,1,.08-.19l.11-.18.13-.16c0-.06.09-.11.13-.16l.16-.13.16-.13.19-.1.2-.08.22,0,.21,0,.23,0h.2l.21,0,.21,0,.21,0,.19.06.2.08.19.1.18.09.16.13a1.53,1.53,0,0,1,.16.13l.14.13.13.16a.76.76,0,0,1,.11.14l.11.18.09.18.06.19A.78.78,0,0,1,166.37,14.93Z"/><path class="cls-1" d="M172.6,14.93l0,.19v.19a1.25,1.25,0,0,1,0,.21.48.48,0,0,1,0,.18,1.33,1.33,0,0,1-.05.19.7.7,0,0,1-.06.19.75.75,0,0,1-.08.18,1.62,1.62,0,0,0-.1.18l-.11.16-.13.16a1.1,1.1,0,0,1-.15.16l-.14.13-.16.13-.18.12a1,1,0,0,1-.17.1l-.2.1-.19.06-.21.05-.21,0h-.4a.52.52,0,0,1-.21,0l-.19,0-.19-.07-.2-.1-.17-.09-.16-.13a.34.34,0,0,1-.16-.13,1.07,1.07,0,0,1-.16-.14.93.93,0,0,1-.13-.15,1,1,0,0,1-.13-.16,1,1,0,0,1-.11-.17,1.62,1.62,0,0,1-.1-.18l-.06-.19a1.59,1.59,0,0,1-.07-.2l0-.17a1.36,1.36,0,0,1,0-.2v-.19a1.49,1.49,0,0,1,0-.21.82.82,0,0,1,0-.21,1.29,1.29,0,0,0,0-.19l.07-.21a1.54,1.54,0,0,1,.08-.19,1.08,1.08,0,0,1,.08-.19l.11-.18.13-.16a1,1,0,0,1,.13-.16l.16-.13.16-.13.19-.1.19-.08.23,0,.21,0,.22,0h.21l.21,0,.21,0,.21,0,.19.06.19.08.2.1.17.09.16.13a.65.65,0,0,1,.16.13c.05,0,.09.09.15.13l.13.16a.76.76,0,0,1,.11.14l.11.18c0,.06.05.11.08.18l.07.19A.8.8,0,0,1,172.6,14.93Z"/><path class="cls-1" d="M178.84,14.93l0,.19v.19a1.34,1.34,0,0,1,0,.21.48.48,0,0,1,0,.18,1.33,1.33,0,0,1-.05.19,3.06,3.06,0,0,1-.15.37l-.09.18-.12.16a1.11,1.11,0,0,1-.12.16l-.15.16-.14.13-.16.13-.18.12a.77.77,0,0,1-.18.1l-.19.1-.19.06-.21.05-.21,0h-.4a.46.46,0,0,1-.21,0l-.19,0-.2-.07-.19-.1-.18-.09-.16-.13A.48.48,0,0,1,175,17l-.16-.14-.13-.15-.12-.16a1,1,0,0,1-.12-.17l-.09-.18-.07-.19-.06-.2,0-.17a1.36,1.36,0,0,1,0-.2v-.19a1.49,1.49,0,0,1,0-.21,1.62,1.62,0,0,1,0-.21,1.33,1.33,0,0,0,.05-.19l.06-.21c0-.06,0-.13.08-.19a1.11,1.11,0,0,1,.09-.19l.11-.18.13-.16a1,1,0,0,1,.13-.16l.16-.13.16-.13.19-.1.19-.08.23,0,.21,0,.22,0h.21l.21,0,.21,0,.21,0,.19.06.19.08.19.1.18.09.16.13a.91.91,0,0,1,.16.13,1,1,0,0,0,.15.13l.12.16a.81.81,0,0,1,.12.14l.11.18c0,.06,0,.11.08.18l.06.19A.48.48,0,0,1,178.84,14.93Z"/></g></g></g></svg>